<svg id="Layer_1" data-name="Layer 1" xmlns="http://www.w3.org/2000/svg" viewBox="0 0 300 300"><defs><style>.cls-1{fill:#e45ea2;}.cls-2{fill:#c5803c;}.cls-3{fill:#f3a669;}.cls-4{fill:#d32d78;}.cls-5{fill:#f395be;}</style></defs><title>assets_icon</title><path class="cls-1" d="M135,251.29a136.15,136.15,0,0,0,4-17.07c1-5.93,1.58-11.89,2.07-17.88s.76-11.79.9-17.69c.12-5.31.29-10.85-1.23-16-5.83-19.84-29.76-19.86-45.37-27.28a85.56,85.56,0,0,1-13.64-8c-3-2.21-6.68-5.31-7.71-9.08-.18-.66.06-3.23-.43-2.22.24-.49.84-.65.83-.69s-.58.2-.61.17a3.13,3.13,0,0,1-2.77-1.42c-.33-.57-.41-.57-.22,0-.49,1.48,1.48,5,2.08,6.26a27.54,27.54,0,0,0,4.27,6.21c6.64,7.6,16.65,12.6,25,18,8.67,5.59,18.49,10.66,25.92,17.91,8.08,7.89,8.85,18.63,8.84,29.35q0,10-.93,20.05c-.59,6.54-2.38,13.35-1.91,19.89a6.13,6.13,0,0,0,4.34,5.71c2.33.64,5.62-.37,6.68-2.72,2.79-6.22,3.26-13,3.95-19.76q1-9.36,1.14-18.78c.22-11.46,0-23.69-5.66-34-5.51-10-15.62-16.2-25-22.2L103,149.34c-4.28-2.75-8.86-5.31-12.79-8.57a18,18,0,0,1-6.64-10.18c-1.5-5.65-6.54-9.41-12.47-8-12.24,3-12.55,17.75-6.29,26.38,6.75,9.32,17.86,15.41,28.26,19.81a126.06,126.06,0,0,0,15.5,5.23c4,1.12,8.13,2.13,11.85,4,4,2,7,4.62,8.14,9.06,1.58,6.21.7,13.42.5,19.75-.44,14.49-1.47,28.94-1.55,43.42,0,4.33,6.24,5.1,7.46,1Z"/><path class="cls-1" d="M79.42,147.55c-5.43.43-8.35,4.77-12.56,7.73-3.77,2.66-8.49,4.57-13.18,3.87-5.08-.75-7.11-4.4-9.88-8.24-3.78-5.23-9.43-9.79-16.33-8.36-5.21,1.07-9,5.59-10.11,10.68-1.25,5.73.87,11.22,4.77,15.44s9.45,7,14.72,9.21a48.15,48.15,0,0,0,18.78,3.94c12.56-.09,25.45-6.61,31-18.29,2.61-5.53-2.91-12.41-8.85-8.84-8,4.83-17.27,8.4-26.82,7.53-7.66-.7-15-4.65-19-11.38l-9,9a9.5,9.5,0,0,0,6.76.73,5,5,0,0,0,3.61-4.74,7.64,7.64,0,0,0-1.37-5c-2.15-2.83-5.67-4.31-9-2.36a6.66,6.66,0,0,0-2.36,9c6,10.27,16.8,16.29,28.39,17.7,12.42,1.51,24.81-2.89,35.27-9.32L75.42,157a21.38,21.38,0,0,1-18.66,12.15,36.36,36.36,0,0,1-14.47-2.46c-3.92-1.44-8.64-3.51-11.42-6.77-.86-1-2.83-5.07-.76-5.43,1.83-.31,4.9,5.32,5.92,6.73,6,8.31,15.53,11.56,25.53,9.22a31.11,31.11,0,0,0,13.6-7.72c3.84-3.49,7.65-8.17,6.33-13.6a2.16,2.16,0,0,0-2.07-1.58Z"/><path class="cls-1" d="M67.69,121.61c-3.42-1.6-6.42-2.92-8.95-5.84A23,23,0,0,1,54,105.68c-1-4.44-1.08-9.06-2.72-13.36-1.85-4.83-5.24-8.93-10.15-10.84C31,77.52,22.6,86.54,21.34,96,20,105.92,25,115.44,32.15,122.05A85.28,85.28,0,0,0,45,131.49c4.83,3,10,5.82,15.69,6.69,2.82.43,5.6-.29,7.13-2.9,1.3-2.24,1.15-5.9-1-7.64-11.14-9-25.48-20.22-27.45-35.52l-4.68,6.14A8.1,8.1,0,0,0,41,94.17a4.34,4.34,0,0,0,0-4.38c-1.9-2.93-4.56-3.78-7.91-4-3.12-.23-6.79,3.12-6.37,6.36,2.56,19.46,16.75,32.67,31.27,44.44L64.09,126c-5-.75-9-3.07-13.14-5.7a60.19,60.19,0,0,1-11.4-8.67,19.91,19.91,0,0,1-5.78-10.83c-.23-1.67-.15-7.2,2.34-7.76,3.3-.75,4.43,7.17,4.69,8.77.79,4.94,1.55,9.32,3.69,13.9,3.92,8.37,12.25,16.15,22.06,14.65,4-.61,4.72-7.09,1.14-8.77Z"/><path class="cls-1" d="M66.22,122.55c9,.87,15.94-10,18.84-17.37a40,40,0,0,0,2.72-12.73c.13-2.55-.19-5.06-.24-7.6,0-1.47-.16-3.86.85-5.13,1.92-2.4,4.27,1.82,4.62,3.39,1,4.38-.25,9.36-1.43,13.59a50.58,50.58,0,0,1-6,13.71c-2,3.07-5,6.58-9,5.35q1.33,5.08,2.68,10.16a61.2,61.2,0,0,0,18-46.76c-.22-3.53-3.82-7.52-7.76-5.91-5.53,2.26-8.73,8.91-3.67,13.67C88.86,89.81,95.57,88,95,83.1c0,.35-1.6,1.8-.23.65l-2.7,1.58.64-.27L85,79.16a49.21,49.21,0,0,1-14.34,38.16,6.14,6.14,0,0,0,2.68,10.16c11.09,3.39,19.87-5.24,24.53-14.32,4.55-8.86,8.15-20,7-30-.61-5.2-2.83-9.87-7.16-12.94a13.55,13.55,0,0,0-13.8-1.37c-4.24,2.12-6.77,6.55-7.49,11.12-.81,5.13.49,10.26-.07,15.4a32.65,32.65,0,0,1-4.36,12.72,51.68,51.68,0,0,1-4.14,6.22,15.81,15.81,0,0,0-3.22,6.1,1.74,1.74,0,0,0,1.65,2.18Z"/><path class="cls-1" d="M105.72,168.19c1,2.2,3.24,3.59,4.67,5.49a38.31,38.31,0,0,1,4.1,6.89c2.37,5.19,3.3,11.22,4.15,16.83a222.53,222.53,0,0,1,2,46.85l12.09-1.63c-.29-.71-.59-1.42-.88-2.12-1.59-3.81-6.92-5.37-9.3-1.22-.36.62-.72,1.24-1.07,1.87a6.23,6.23,0,0,0,3.68,9c4,1.1,7.51-2,7.79-5.94a194.34,194.34,0,0,0-3.38-52.67,51.73,51.73,0,0,0-6.92-17.78c-2.79-4.27-9.71-11.33-15.52-9a2.38,2.38,0,0,0-1.39,3.41Z"/><path class="cls-1" d="M124,195.18c-1.06-5.24-8.1-7-12-9.6A35.69,35.69,0,0,1,101.75,175a5.72,5.72,0,0,0-7.66-2c-9.65,5-11,18-4.81,26.22,7.6,10,20.59,10.67,32,8.49,5.15-1,5.48-8.29,1.41-10.74a152.51,152.51,0,0,1-16.85-11.54c-2.44-1.94-4.88-4.77-8-5.57-4.39-1.13-7.53,2.27-8.06,6.27-.34,2.62,2.06,4.71,4.21,5.52a6,6,0,0,0,3.47.06c2.29-.44,3.77-2.86,3.84-5v-.23c.11-3.48-3.3-5.45-6.38-4.86l-.25.05,5.91,2.4-.14-.29.75,2.76,0-.37-.78,2.89.22-.32-5,2.89q-2.75-.93-.65.46l.92.75q1.38,1.13,2.79,2.22c2,1.53,3.94,3,6,4.49a135.38,135.38,0,0,0,12,7.61l1.41-10.74c-6.28,1.35-13.93,2-18.9-2.91-3.11-3.07-3.82-8.52.51-10.8l-7.66-2a47,47,0,0,0,12.32,12.95c4.29,3.06,10.51,6.56,15.93,6.45a3.88,3.88,0,0,0,3.69-4.84Z"/><path class="cls-1" d="M138.71,183.58c8.87,1.18,16.49-6.69,20-14.18,3.78-8,4.31-18.39,10-25.4,2.08-2.54,5.58-4.85,9-4.32,3.08.48,4.71,3.6,5.22,6.38,1.47,8.07-5.62,16.84-10.08,22.9-5.61,7.61-14.59,15.83-24.87,14.13l3.84,3.84c.42,1.15-1.25,1.32,1,.32,1.31-.58,2.68-1,4-1.65a34.1,34.1,0,0,0,6.62-4.19,37.59,37.59,0,0,0,9.27-10.81,36.6,36.6,0,0,0,4.6-14.11c.38-3.21-.91-11.22,3.53-11.9l-7.21-4.09c-.17-1.27.07-.16-.28.23s-.47.68-.74,1a27.74,27.74,0,0,1-3.41,3.18,51.12,51.12,0,0,0-6.74,6.58,48.67,48.67,0,0,0-9.44,18.34c-1.24,4.68,4.25,9.62,8.64,6.64,10.42-7.09,17.92-17,25.29-27l-11-3a41.23,41.23,0,0,1-4.92,15.92c-2.84,5.18-6.9,9.53-10.31,14.33-3,4.22,2.64,8.32,6.48,6.48,13-6.23,19.32-23.25,20.55-36.73.23-2.55-2-5-4.33-5.69-2.7-.74-5.1.58-6.66,2.71-6.1,8.33-12.41,16.92-21,22.8l8.64,6.64A35.65,35.65,0,0,1,175,155.37c5.71-5.17,11.17-9.5,10-18-.47-3.38-4.43-4.52-7.2-4.09-7.27,1.11-10.89,8.37-11.52,15-.56,5.94-.16,11.24-3.11,16.68a25.78,25.78,0,0,1-11,10.68c-2.92,1.49-6.13,2.15-8.52,4.57a9.38,9.38,0,0,0-2.35,9.63c.62,1.69,1.9,3.53,3.85,3.85,12.09,2,23.24-3.36,31.43-12.13a92,92,0,0,0,10.44-14c3.21-5.1,6-10.54,6.77-16.59,1.28-10.23-4.87-21.36-16-22-12.18-.72-19.89,10-23.39,20.24-2,5.73-2.86,12-5.7,17.41s-7.63,8.14-12.16,11.7c-2.41,1.89-.09,5,2.2,5.3Z"/><path class="cls-1" d="M106,154.81a5.53,5.53,0,0,0,5.82,5.38,3.89,3.89,0,0,0,3.55-2.7c1.63-3.88,2-8.15,2.76-12.27s1.55-8.36,2.45-12.51c1.73-8,4.17-15.89,8.3-23,1.92-3.31,4.17-6.89,7.09-9.44.53-.45,2.11-1.89,2.89-1.77-.61-.1-.33-.42-.38.27-.09,1.28.05,2.57-.08,3.85-1,9.5-6.2,18.82-9.85,27.5-3.34,7.95-6.31,18.49-14,23.39l7.62,2c-1.5-3.25.48-7.64,1.63-10.69,1.71-4.53,3.55-9,5.35-13.52,3.75-9.34,7.56-18.67,11.25-28l-7.19,4.08a4.54,4.54,0,0,1,1,.47c2.49,2.18,6.93,1.57,7.76-2,1.11-4.8-1.34-8-5.7-9.69-3.15-1.23-6.14,1.4-7.19,4.08-4.13,10.56-8.11,21.18-12.19,31.76-3.63,9.4-9,19.23-4.39,29.22,1.23,2.66,5.27,3.5,7.62,2,9.57-6.12,13.47-16.67,17.67-26.69,4.7-11.22,11.38-23.12,11.73-35.55.16-5.72-2-11.67-8.16-13.12-5.27-1.25-10.72,1.93-14.22,5.64-7.35,7.78-12,17.91-14.93,28.1a112.67,112.67,0,0,0-3.52,17.81c-.7,6-1.63,12.23-.48,18.17.56-1.39,1.13-2.77,1.69-4.16-.74.47-.69.57-1.41,0a1.71,1.71,0,0,0-2.55,1.46Z"/><path class="cls-1" d="M189,146c18-1.75,32.58-17.37,37.74-34.07a43.24,43.24,0,0,0,1.44-6.33,16,16,0,0,0,.49-2.77c-.05-1.73-.26.08-.58-.59a8.55,8.55,0,0,1,.9,1.48c.72,2.07.3,4.61.15,6.75-.68,9.38-3.31,17.42-10.28,24a39.52,39.52,0,0,1-11.53,7.46,42.18,42.18,0,0,1-6,2c-.88.24-2.5.49-3.08.71.34-.13-.66,0-.67-.05-.07-.28,1.94,1.68.76.21L200,147.5l-.08.43-6.19,6.19a47.64,47.64,0,0,0,33.16-16,44.87,44.87,0,0,0,9.43-17.26c2-7.27,1.25-13.73-.12-21v3.37l-2.12,2c-2.58-1.62-3.63-1.93-3.13-.91-.06.19.27.73.25.94-.12,1.64.15,3.3,0,5a34.51,34.51,0,0,1-2.55,9.51c-2.39,5.86-9.07,13.06-6.57,19.61.55,1.43,1.89,2.9,3.61,2.74,3.57-.34,5.46-1.67,7.61-4.51a46.27,46.27,0,0,0,4.67-7.8,55,55,0,0,0,5.65-17.92c.63-5.44.45-12.41-3.89-16.43-4.65-4.31-12.81-3.08-15.3,3-1.24,3-.08,5.6.42,8.6a24.67,24.67,0,0,1,0,7.28,30.71,30.71,0,0,1-6.16,14.23,34.94,34.94,0,0,1-25,13.14c-3.06.19-6.58,2.7-6.19,6.19,1.65,15.08,21.42,7.34,29.47,2.95,10-5.48,18.3-14.33,22-25.26a55,55,0,0,0,2.62-21c-.52-6.33-3.83-12.4-10.32-14.19-7-1.93-12.95,2.86-14.44,9.6-1.11,5-1.59,9.9-3.83,14.64-5.39,11.37-14.91,18.47-25.92,24-3.4,1.7-1.9,7.74,2,7.36Z"/><path class="cls-1" d="M221.51,92a26,26,0,0,1-10.93-19.44,33,33,0,0,1,1.08-12.31c.94-3.15,3.3-8.77,7-9.27h-3c-1.33-1.81-1.65-1.9-.95-.29l.29,1.11a16.18,16.18,0,0,1,.36,3,35.56,35.56,0,0,1-.45,6.6c-.7,4.46-1.75,8.84-2.21,13.34-.82,8,.61,16.24,6.34,22.17a5.75,5.75,0,0,0,8,0c2.36-2.37,1.9-5.61,0-8A37.24,37.24,0,0,1,220,73a36.36,36.36,0,0,1-.62-8.2,29.73,29.73,0,0,1,.35-4.11c0-.32.52-1.73.48-1.86a.53.53,0,0,0,.12-.14c.38-.47-.1-.31-1.43.47,3.28.15,6.12-4.16,4-7-3.7-5-10-3.69-12.78,1.62-2.2,4.21-2.26,10-2,14.6a49.87,49.87,0,0,0,11,28.54l8-8c-5.4-5.59-2.94-14.84-1.73-21.59.87-4.86,1.67-9.83,1.11-14.78-.51-4.54-1.86-10.59-6.86-12.14-9.18-2.85-16.33,9.29-18.51,16.44a42.23,42.23,0,0,0,.06,24.12c2.51,8.26,8.09,16.89,17.12,18.64A4.19,4.19,0,0,0,221.51,92Z"/><path class="cls-1" d="M235.68,116.85c8.2,6.56,17.7-1.76,21.76-9,2.45-4.36,4.32-9.05,6.35-13.61,1.11-2.46,3.35-10.44,6.89-10.61,2.52-.13.78,5.79.23,7.33a48.85,48.85,0,0,1-5.42,10.69,34.65,34.65,0,0,1-7.88,8.63,26,26,0,0,1-5.1,3,20.52,20.52,0,0,1-2.11.77c-3,.93-1.22-.47.07,1.75.25.94.5,1.87.76,2.81q-1.26,2.26-.18,1l1.3-1.37,2.59-2.73,4.76-5q5-5.25,9.94-10.49c5.58-5.9,11.19-14,4.84-21.5-3-3.51-8-1.09-9.35,2.47a7.35,7.35,0,0,0-.12,5.32,4.21,4.21,0,0,0,5,2.83,7.32,7.32,0,0,0,4.5-2.71h-7.91c-.11-.13-.51-.6-.31-.85-.12.15-.43,1.32-.58,1.62a12.78,12.78,0,0,1-1.92,2.73c-2.44,2.79-5.1,5.42-7.65,8.11l-7.33,7.77c-2.45,2.59-5.45,5.1-7.42,8.08-4,6.07,1.59,12.13,8,11.78,5.71-.32,11.4-3.75,15.76-7.2a48.17,48.17,0,0,0,11-12.8c2.88-4.73,5.69-10.36,6.63-15.86,1-6.13-.72-12.89-6.6-15.93-6.4-3.32-13.38.4-17.19,5.76-2.08,2.93-3.32,6.47-4.74,9.74q-2.34,5.37-4.63,10.75c-1.24,2.91-2.59,5.85-4.86,8.12-2.12,2.13-4.83,3-7.7,3.63-2,.47-3.08,3.59-1.32,5Z"/><path class="cls-1" d="M168.48,178.66c3,8.1,11.55,10.77,19.64,9.84a51.75,51.75,0,0,0,13.46-3.76c1.91-.78,4-1.94,6.11-2.13,1-.1,2.13.74,1.92,0,.38,1.4-1.61,3.93-2.3,5a26.65,26.65,0,0,1-3.46,4.32c-2.55,2.53-5.7,4.24-9.38,3.83-3.84-.43-7.37-2.55-10.5-4.69-2.28-1.55-6.7-4.62-5.82-7.82l-9.61,2.53c12.35,10,30.17,11.5,43.65,2.69,6.56-4.29.75-14.44-6.18-10.57-3.6,2-7.81,7.39-4.91,11.58,2.81,4,7.88.42,11.09-1L206,177.89c-8.59,5.86-20.89,6.31-29.34-.24-3.23-2.51-8.44-2.08-9.61,2.53-3.14,12.44,10.59,21.88,20.78,25.35,11.84,4,22.18-2.22,28.59-12,3.08-4.71,5.8-11,2.37-16.34-3.25-5-9.55-6.08-15-4.62-5.83,1.57-11,5.07-17.06,5.9a20.06,20.06,0,0,1-13.62-3.36c-2.2-1.47-5.62,1-4.66,3.58Z"/><path class="cls-1" d="M199.53,186c-1.89,1.82-7.13,3.06-9.28,1.07l-1.12,8.67c2.09-.94,4.84-.52,7-.47a27.89,27.89,0,0,0,6.94-.54c4.77-1.1,11.79-5.89,8-11.57a5.56,5.56,0,0,0-7.34-1.68c-1.85.93-2.7,1.93-4.82,2.14-5.43.55-10.49-.74-15.36,2.59a5.6,5.6,0,0,0,0,9.53,16,16,0,0,0,12.79,1.95c4.61-1.26,7-4.25,8.38-8.67,1-3-3-5.1-5.2-3Z"/><path class="cls-1" d="M141,85.92c-1.79-3.32-5.06-5.29-7.13-8.41a19.09,19.09,0,0,1-3-10.14,40.22,40.22,0,0,1,1.58-11.59c.55-2.12,1.19-4.21,1.85-6.3a14.58,14.58,0,0,0,.64-2c.3-2.11,1.15.33-.69-.67.34.18-4.34.42-2.71-1,.22-.19.2,1.69.19,1.49a20.3,20.3,0,0,1-.58,3.93c-.76,4.12-1.5,8.25-2,12.42-1,8.16-.26,16.26,3.63,23.61l10.09-5.9a51.71,51.71,0,0,1-6.76-20.26c-.59-5.66-1-13,3.43-17.27,3.46-3.32,1-10.48-4.15-10a19.63,19.63,0,0,0-14.71,8.12c-3.85,5.39-3.9,12.19-3,18.49,1.64,11.3,7.28,23.15,16.07,30.64,5.66,4.83,13.38-2.67,8.23-8.23-5.58-6-9.92-12.46-12-20.52-1.4-5.48-2.81-16,5.37-16.76q-2.07-5-4.15-10c-6.55,6.29-7.66,15.83-6.94,24.46a65.37,65.37,0,0,0,8.48,27.27c3.76,6.54,13.62.73,10.09-5.9-4.76-9-1.73-19.78-.11-29.17.73-4.3,1-8.86-1.58-12.64a9,9,0,0,0-13.66-1.33c-3.63,3.44-4.74,9.31-5.94,14-1.36,5.26-2.38,10.81-1.88,16.26.93,10.12,7.1,21.7,18.27,22.81,2.81.27,4.21-3.17,3.05-5.32Z"/><path class="cls-1" d="M135,84.47c3.25,3.29,9.25,3.2,13.4,1.82,4.6-1.54,8.82-5,12-8.56a38.08,38.08,0,0,0,7.95-14.48,43.5,43.5,0,0,0,1.45-7.76c.14-1.31.15-2.64.34-3.94.09-.62.87-2.23.76-2.77,0-.14.3-.22.22-.39a1.53,1.53,0,0,0-1.11-.25c.13.47.28.94.43,1.41a20.06,20.06,0,0,1,.69,6.22,24.55,24.55,0,0,1-4.33,12.44c-5.39,8.11-15,12.29-24.17,14.36Q144.9,88,147.2,93.5C165,84,179.08,66.24,175,45.07c-.62-3.19-4.43-5-7.39-4.19-3.32.91-4.81,4.19-4.19,7.38,3,15.66-9.69,28.15-22.24,34.91-6.14,3.31-1.83,12.39,4.61,10.93,18.64-4.23,36-17.45,37.2-37.83.5-8.76-3.5-22.75-15.05-19.27-11.27,3.4-8.43,16-11.24,24.69a30.52,30.52,0,0,1-7.76,12.59,27.73,27.73,0,0,1-6,4.06c-2.26,1.22-4.64,1.54-7,2.5a2.2,2.2,0,0,0-1,3.63Z"/><path class="cls-1" d="M179.08,132.79c-1.31-3.18-3-6-3.51-9.49-.62-3.92.42-7.92,1.7-11.59,2.21-6.36,5.3-13.63,11.26-17.27a5.8,5.8,0,0,0,2.57-6.3c-1.35-7.6-10.73-6.82-15.7-3.77A35.72,35.72,0,0,0,163,97.5a37.65,37.65,0,0,0-1,35c1.36,2.73,5.22,3.5,7.74,2,2.87-1.68,3.28-4.94,2-7.74-3.06-6.85-3.5-15.16.24-21.83a18.49,18.49,0,0,1,6.39-6.84c1.12-.67,4.55-2.15,5.31-1.22,1.19,1.47-3.29,5.48-4.37,6.52a45.63,45.63,0,0,0-7.7,9.38c-3.91,6.48-7.5,16-4.73,23.48,1.63,4.37,7.59,4.6,9.14,0s1.62-9.57,3.58-14.12c2.07-4.78,5.29-8.14,8.92-11.74,3.86-3.85,7-8.57,6.48-14.27a11.7,11.7,0,0,0-9.48-10.5c-10-2.05-19.52,6.11-23.79,14.42-5.33,10.37-4.42,22,.25,32.43l9.76-5.71c-3.18-6.33-3-13.8-.57-20.35a25.67,25.67,0,0,1,5.22-8.51,23.24,23.24,0,0,1,3.92-3.42,19.19,19.19,0,0,0,2.16-1.28q0,.09-.06,0,2.73.18-2.11-2.1l2.57-6.3C174,90.27,169.27,100.17,166.65,110a31.72,31.72,0,0,0-.6,16c1.17,4.59,4.5,9.56,9.28,10.61,2,.45,4.69-1.44,3.75-3.75Z"/><path class="cls-2" d="M165.61,255.19c-4.28-.1-14.16.75-17-3.16-2.15-2.93-1.1-8.34.54-11.25,2-3.59,4.18-7.26,7.5-9.69,6.8-5,16.21-3.42,24.37-1.36q13,3.26,25.74,7.44c2.08.69,4.34,1.52,5.45,3.42a6.53,6.53,0,0,1,.2,5.49c-1.52,4.29-5.64,7.24-10,8.54s-9,1.21-13.54,1.1Z"/><path class="cls-2" d="M75.79,232.28c-4,1.55-7.8,4.09-9.86,7.85s-2,8.89,1,12c2.52,2.64,6.42,3.33,10,3.87l26.28,4a76.1,76.1,0,0,0,13.38,1.22c4.15-.12,9-1.46,10.46-5.34,3.81-10-11.46-16.66-18.55-18.92C97.25,233.33,88,227.58,75.79,232.28Z"/><path class="cls-3" d="M121.23,251.56c-1.44,1.54-2.65,3.71-1.93,5.7.53,1.49,2,2.43,3.38,3.18a51.72,51.72,0,0,0,14.76,5.11c4.47.85,9.28,1.15,13.39-.8,6.11-2.9,6.61-8.85,4.06-14.34C149.18,238.06,128.46,243.84,121.23,251.56Z"/><path class="cls-4" d="M163.92,142.42a7.67,7.67,0,0,0-2.29,3.22,3.71,3.71,0,0,0-.09,2.44c.17.33.19.4.05.21l.22.54a2.25,2.25,0,0,0,.91.85c-.3-.38-.6-.77-.89-1.16a2.68,2.68,0,0,0,.7,1.21,1.59,1.59,0,0,0,1.91.25,3.36,3.36,0,0,0,.95-1l-1.68,1a2.76,2.76,0,0,0,2.17-1.37l-.85.86c1.55-.94,1.64-2.73,2.68-4.1a2.4,2.4,0,0,0-.62-3.11,2.45,2.45,0,0,0-3.17.19Z"/><path class="cls-4" d="M172.7,144.55a6,6,0,0,0-2.44,4.47,2.41,2.41,0,0,0,1.47,2.19,2.49,2.49,0,0,0,2.62-.5,5.33,5.33,0,0,0,1.29-2.08,6,6,0,0,0,.4-2.69,2,2,0,0,0-3.34-1.39Z"/><path class="cls-4" d="M180.67,151.44l-.66.87-.26.6a1.93,1.93,0,0,0,0,1,2.41,2.41,0,0,0,.69,1.46,2.94,2.94,0,0,0,1.12.65,2.5,2.5,0,0,0,1.95-.25l.87-.66a2.63,2.63,0,0,0,1-1,2.59,2.59,0,0,0,.37-1.35,2.7,2.7,0,0,0-2.68-2.69,2.7,2.7,0,0,0-1.36.37,2.76,2.76,0,0,0-1,1Z"/><path class="cls-4" d="M179.46,192.9a5,5,0,0,0,.69,3.77,4.19,4.19,0,0,0,3.39,2.12A1.63,1.63,0,0,0,185,198a1.7,1.7,0,0,0-.26-2,9.76,9.76,0,0,0-1.31-.8,1.84,1.84,0,0,1-.73-1.39,1.71,1.71,0,0,0-1.16-2,1.66,1.66,0,0,0-2,1.15Z"/><path class="cls-4" d="M190.81,196.73a7.23,7.23,0,0,0,2,.87,1.78,1.78,0,0,0,1.93-.79,1.75,1.75,0,0,0-.27-2.06,6.54,6.54,0,0,0-1.83-1.14,1.81,1.81,0,1,0-1.83,3.12Z"/><path class="cls-4" d="M91.49,189a6.37,6.37,0,0,1-1.66,3,2.07,2.07,0,0,0,.42,3.2,5,5,0,0,0,4.17,1.18,1.16,1.16,0,0,0,.78-1.38,5.23,5.23,0,0,0-2.9-3.32l.42,3.2A10.26,10.26,0,0,0,95,190a1.87,1.87,0,0,0-1.27-2.23A1.83,1.83,0,0,0,91.49,189Z"/><path class="cls-4" d="M100,193.25a5,5,0,0,0-.84,3.95,4.92,4.92,0,0,0,2.29,3.28,2,2,0,0,0,2.77-2.77c-.08-.15-.17-.29-.26-.43.1.35.2.71.29,1.07a12.48,12.48,0,0,0-.71-2.23c.14.53-.13-1-.09-.68a3.83,3.83,0,0,0-.08-.83c0,.42,0,.44,0,.08a1.88,1.88,0,0,0-3.42-1.44Z"/><path class="cls-4" d="M266.63,90.78a1.22,1.22,0,0,1,.35,1.13c0,.26,0,.29,0,.08a4.45,4.45,0,0,0-.13.8c0,.28,0,.3,0,.07a2.76,2.76,0,0,0-.08.8,2.16,2.16,0,0,0,4,1.08c1.29-1.93.05-4.6-1.55-5.94a1.66,1.66,0,0,0-2.14-.13,1.62,1.62,0,0,0-.42,2.11Z"/><path class="cls-4" d="M273.82,88.12c0,1.37-.15,4.07,1.84,4.07s1.84-2.7,1.84-4.07a1.85,1.85,0,0,0-1.84-1.84,1.87,1.87,0,0,0-1.84,1.84Z"/><path class="cls-4" d="M222.79,105.47l-.39.84a1.94,1.94,0,0,0,.29,2.23l0,0-.44-.75c-.14-.54,0,.53,0,.48a1.88,1.88,0,0,0,.27.55,1,1,0,0,0,.89.51,2.76,2.76,0,0,0,.75-.14,2.68,2.68,0,0,0,.79-.59l-.7.42-.29,0a1.82,1.82,0,0,0,1.59-.91l.44-.81a1.87,1.87,0,1,0-3.23-1.89Z"/><path class="cls-4" d="M229.88,103.16c-1,2-2,4.85-.3,6.69a2.44,2.44,0,0,0,2.41.63c1.48-.51,2-1.57,2.46-3a9.87,9.87,0,0,0,.49-3c.07-2.61-3.86-3.81-5.06-1.37Z"/><path class="cls-4" d="M123,48.44a7.78,7.78,0,0,0-1.69,7,1.87,1.87,0,0,0,3.61-1,11.72,11.72,0,0,1,.45-4.59c.35-1.3-1.41-2.48-2.37-1.38Z"/><path class="cls-4" d="M126.54,56.26a15.36,15.36,0,0,0,.13,2.25,2.17,2.17,0,0,0,.84,1.21,2.14,2.14,0,0,0,1.41.5,2.69,2.69,0,0,0,1.18-.31,2.32,2.32,0,0,0,1.07-1.4,16.89,16.89,0,0,0,.14-2.25,2.39,2.39,0,1,0-4.77,0Z"/><path class="cls-4" d="M80.81,102.14c.29,2,.35,4.28,1.11,6.18a1.79,1.79,0,0,0,3.49-.47c.21-2.21-.44-4.59-.76-6.77a2,2,0,0,0-2.45-1.39,2,2,0,0,0-1.39,2.45Z"/><path class="cls-4" d="M87.11,103.56a7.37,7.37,0,0,0,.1,2.15,2.15,2.15,0,0,0,4.26,0,7.37,7.37,0,0,0,.1-2.15,2.23,2.23,0,1,0-4.46,0Z"/><path class="cls-4" d="M27.19,100.67a7,7,0,0,0,.73,3.24.7.7,0,0,0,1.2,0,6.84,6.84,0,0,0,.73-3.24c.11-1.71-2.77-1.71-2.66,0Z"/><path class="cls-4" d="M33,105.49a5.68,5.68,0,0,0,.51,2.68,2.08,2.08,0,0,0,3.56,0,5.68,5.68,0,0,0,.51-2.68,2.29,2.29,0,0,0-4.58,0Z"/><path class="cls-5" d="M265.66,76.28a5.68,5.68,0,0,0-2.82,4.83,3.47,3.47,0,0,0,.94,2.37c-.26-.41-.16-.3.3.34a2.74,2.74,0,0,0,1.21.7,2.82,2.82,0,0,0,3.2-1.42l-1,1a4,4,0,0,0,1.67-2.06l.21-.73c.08-.23,0-.14-.11.27.07-.13.14-.26.22-.38a9.49,9.49,0,0,0,.43-1c-.19.44-.21.5-.05.19a3.07,3.07,0,0,0-4.17-4.17Z"/><path class="cls-5" d="M271.23,79.43c0,.18,0,.36,0,.54a2.43,2.43,0,0,0,.29,1A1.48,1.48,0,0,0,274,81a2.27,2.27,0,0,0,.29-1c0-.18,0-.36,0-.54a1.54,1.54,0,0,0-3.08,0Z"/><path class="cls-5" d="M207.63,54.33l.06.84a.4.4,0,0,0,.79,0l.06-.84c0-.58-.94-.59-.91,0Z"/><path class="cls-5" d="M209.4,53.24a3.56,3.56,0,0,0-1.72,2.25c-.29,1.15-.07,2.54,1.21,2.95l-.63-.37a2.16,2.16,0,0,0,1.52.76.59.59,0,0,0,.71-.7c-.06-.31-.13.52.08-.24a2.83,2.83,0,0,0,.06-.44c-.12.21-.24.42-.37.62a1.52,1.52,0,0,0,.51-.92,4.17,4.17,0,0,0,.1-.6c0-.21,0-.24,0-.09a1.47,1.47,0,0,1,.41-.8,1.55,1.55,0,0,0-1.87-2.42Z"/><path class="cls-5" d="M212,56.1c.14.45.27.9.42,1.35a6.48,6.48,0,0,0,.91,1.65,2.48,2.48,0,0,0,4.62-1.25,7.84,7.84,0,0,0-.18-1.88c-.14-.45-.32-.89-.48-1.33A2.74,2.74,0,1,0,212,56.1Z"/><path class="cls-5" d="M166.25,47.48c-.07.55-.17,1.1-.2,1.65a2.73,2.73,0,0,0,.18,1.53.39.39,0,0,0,.68,0,2.56,2.56,0,0,0,.18-1.53,15.47,15.47,0,0,0-.2-1.65c0-.32-.59-.32-.64,0Z"/><path class="cls-5" d="M168.11,46a10.32,10.32,0,0,0-.34,3.17,4.19,4.19,0,0,0,.6,1.95,2.37,2.37,0,0,0,3.95.24,3.49,3.49,0,0,0,.78-2,10.35,10.35,0,0,0-.34-3.32,2.43,2.43,0,0,0-4.65,0Z"/><path class="cls-5" d="M174.12,50.47c0,.24,0,.49,0,.74a3.13,3.13,0,0,0,.12.68,2.86,2.86,0,0,0,.65,1l-.46-.8a3.24,3.24,0,0,0,.27.67,1.72,1.72,0,0,0,2.95,0,3.27,3.27,0,0,0,.28-.67c-.16.26-.31.53-.47.8a2.87,2.87,0,0,0,.78-1.73c0-.25,0-.5.05-.74a2.11,2.11,0,1,0-4.22,0Z"/><path class="cls-5" d="M184.92,102.65a.05.05,0,0,0,0-.1.05.05,0,1,0,0,.1Z"/><path class="cls-5" d="M187.81,106.51a.05.05,0,1,0,0-.1.05.05,0,0,0,0,.1Z"/><path class="cls-5" d="M174.63,91.07a29.53,29.53,0,0,0-2.17,4.27,2.08,2.08,0,1,0,3.8,1.6,29.24,29.24,0,0,0,1.45-4.57,1.69,1.69,0,0,0-3.08-1.3Z"/><path class="cls-5" d="M180.38,94.43c-.14.41-.32.83-.42,1.25a2.28,2.28,0,0,0,.6,2.18l-.43-1a3.76,3.76,0,0,0,.31,1.52,1,1,0,0,0,1.32.35,3,3,0,0,0,.91-.82l-.66.39c1.41-.28,1.7-1.62,2.09-2.79a1.94,1.94,0,0,0-1.35-2.37,2,2,0,0,0-2.37,1.34Z"/><path class="cls-5" d="M128.06,103.06c-.57,1.11-1,2.27-1.57,3.4a7.83,7.83,0,0,0-1,3.38,1.45,1.45,0,0,0,2.83.39,18.81,18.81,0,0,0,.4-3,9.93,9.93,0,0,1,1.13-3.11c.63-1.2-1.2-2.27-1.82-1.06Z"/><path class="cls-5" d="M135,107c-.51,2.26-1.35,4.79-.94,7.11a1.67,1.67,0,0,0,3,.39c1.09-2.06,1-4.78,1.24-7.06.18-1.89-2.9-2.29-3.31-.44Z"/><path class="cls-5" d="M127.76,192.42c.38,3.27-.62,7.79,1.6,10.47a2.19,2.19,0,0,0,3.09,0c2.44-3.16.48-7.7-.84-11-.74-1.84-4.13-1.88-3.85.52Z"/><path class="cls-5" d="M136.69,198.62c-.31,2.25-1,4.73.24,6.83a1.93,1.93,0,0,0,3.3,0c1.2-2.1.54-4.58.24-6.83-.25-1.88-3.53-1.88-3.78,0Z"/></svg>