<?xml version="1.0" encoding="utf-8"?>
<!-- Generator: Adobe Illustrator 22.0.1, SVG Export Plug-In . SVG Version: 6.00 Build 0)  -->
<svg version="1.1" id="Layer_1" xmlns="http://www.w3.org/2000/svg" xmlns:xlink="http://www.w3.org/1999/xlink" x="0px" y="0px"
	 width="300px" height="300px" viewBox="0 0 300 300" style="enable-background:new 0 0 300 300;" xml:space="preserve">
<path style="fill:#0000FF;" d="M190.3,258.4c0.1,0.5,0.3,0.9,0.6,1.2c1.3,1.6,3.2,2.7,5.3,3c3.9,0.7,12.3-2.1,7.1-6.7
	c-1.7-1.5-4.1-2.1-6.3-1.9C194.9,254.2,189.8,255.6,190.3,258.4z"/>
<path style="fill:#6666FF;" d="M112.5,180C112.5,180,112.5,180.1,112.5,180c-0.7,4.4-1.7,8.7-3.5,12.6c-0.7,1.7-1.6,3.3-2.7,4.8
	l-0.1,0.2c-0.2,0.3-0.5,0.6-0.7,1h0c-1.1,1.4-2.4,2.7-3.8,3.9c-3.4,2.9-7.6,5-11.8,6.4c-13,4.4-27.9,2.8-39.7-4.2
	c-11.8-7-20.2-19.4-22.5-32.9c-0.6-3.6-0.9-7.5-3.3-10.3c-2.5-2.8-7.3-3.4-10.2-1.1c-1.4,1.2-2.6,3-4.4,3.3c-2.5,0.4-4-2.2-4.4-4.9
	c-0.1-0.9-0.1-1.8,0-2.7c1.6-8.9,8.5-16.7,17.2-19.3c8.7-2.6,18.7,0.2,24.9,6.8c2.9,3.2,5.1,7.1,7.5,10.8c2.4,3.7,5,7.2,8.9,9.2
	c1.9,1,4,1.5,6.2,1.6c3.2,0.1,6.4-0.7,9.1-2.5c4.4-3,7-8.6,6.4-13.9l20,12.1c3.6,1.1,6.1,4.5,7,8.1C113.4,172.5,113,176.3,112.5,180
	z"/>
<path style="fill:#9999FF;" d="M109,192.6c-0.7,1.7-1.6,3.3-2.7,4.8l-0.1,0.2c-0.2,0.3-0.5,0.6-0.7,1h0c-1.1,1.4-2.4,2.7-3.8,3.9
	c-3.4,2.9-7.6,5-11.8,6.4c-13,4.4-27.9,2.8-39.7-4.2c-11.8-7-20.2-19.4-22.5-32.9c-0.6-3.6-0.9-7.5-3.3-10.3
	c-2.5-2.8-7.3-3.4-10.2-1.1c-1.4,1.2-2.6,3-4.4,3.3c-2.5,0.4-4-2.2-4.4-4.9c1.4-0.6,2.1-1.9,4.5-4.7c3.5-4.1,9.5-5.3,14.5-3.2
	c5.6,2.4,9.3,7.8,11.9,13.2c2.6,5.5,4.6,11.3,8.1,16.2c6,8.3,16,13,26.1,14.7c10.1,1.7,20.5,0.7,30.7-0.4
	C103.8,194.3,106.7,193.9,109,192.6z"/>
<path style="fill:#6666FF;" d="M143,200.6L143,200.6c-0.1,1.3-0.2,2.6-0.3,3.9c-0.6,5.2-1.8,10.4-3.7,15.2
	c-5.4,13.8-16.6,25.4-30.6,30.2c-5.7,2-11.9,2.8-17.2,5.8c-5.3,3-9.6,9.1-7.8,14.9c0.5,1.6,1.4,3.1,1.4,4.7c0,1.5-0.7,2.7-1.8,3.7
	c-1.3,1.2-3.2,1.9-5,2c-6.5,0.3-12.1-4.9-15.4-10.5c-5.2-9.1-6.5-20.4-3.4-30.4c3.1-10,10.4-18.7,19.9-23.3
	c8.9-4.3,20.3-6,25.3-14.3c0.2-0.3,0.3-0.6,0.5-0.9c0.5-0.9,0.9-1.9,1.2-2.9c0.1-0.5,0.3-0.9,0.4-1.4c1.5-6,1.2-12.7,5.3-17.2
	l0.9-0.1l27.3-3.9c1.3,4.3,2.3,8.7,2.8,13.1c0,0,0,0,0,0c0.1,1.2,0.3,2.4,0.3,3.6c0.1,1,0.1,2,0.1,3.1
	C143.1,197.5,143.1,199,143,200.6z"/>
<path style="fill:#9999FF;" d="M143,200.6L143,200.6c-0.1,1.3-0.2,2.6-0.3,3.9c-0.6,5.2-1.8,10.4-3.7,15.2
	c-5.4,13.8-16.6,25.4-30.6,30.2c-5.7,2-11.9,2.8-17.2,5.8c-5.3,3-9.6,9.1-7.8,14.9c0.5,1.6,1.4,3.1,1.4,4.7c0,1.5-0.7,2.7-1.8,3.7
	c-4.2-4.8-4-12.3-0.9-17.9c3.1-5.6,8.6-9.4,14.3-12.3c5.7-2.9,11.8-5,17.3-8.2c12.7-7.3,21.7-20.3,24.8-34.5
	c0.9-3.9,0.3-11.7,4.5-13.2c0.1,1,0.1,2,0.1,3.1C143.1,197.5,143.1,199,143,200.6z"/>
<path style="fill:#6666FF;" d="M221,272.5c-1.4-0.3-2.5-1-3.6-1.8c-2.7-2.1-4.7-5.2-7.2-7.6c-3.9-3.8-9.5-5.9-14.9-5.6
	c-3.7,0.2-7.2,1.4-10.7,2.3c-6.2,1.6-12.8,2.2-19,0.9c-6.3-1.3-12.3-4.7-15.8-10c-4.2-6.2-4.7-14.1-5.1-21.5
	c-0.4-8.3-1-16.6-1.4-24.9c-0.1-1.3-0.1-2.5-0.2-3.8v0c-0.1-1.5-0.1-3-0.2-4.5c0-0.6,0-1.1-0.1-1.7c-0.1-1.6-0.1-3.4-0.1-5.1
	c0,0,0,0,0,0c0-2.2,0.2-4.4,0.6-6.5c0.5-2.3,1.4-4.4,2.9-6.2c4.5-5.4,14.4-8.3,20.9-5.9c2,0.7,3.6,1.8,5,3.2
	c4.3,4.1,6.3,10.6,7.5,16.2c0.1,0.6,0.2,1.1,0.3,1.7c0.4,1.8,0.7,3.6,1,5.4c1.1,6.7,1.7,13.5,1.9,20.3c0.2,6.8,0.2,14.5,5.2,19
	c6.2,5.7,16.5,3.2,23.8,7.4c4.6,2.6,7.4,7.7,8.6,12.9C221.6,261.8,221.3,267.2,221,272.5z"/>
<path style="fill:#9999FF;" d="M217.3,270.7c-2.7-2.1-4.7-5.2-7.2-7.6c-3.9-3.8-9.5-5.9-14.9-5.6c-3.7,0.2-7.2,1.4-10.7,2.3
	c-6.2,1.6-12.8,2.2-19,0.9c-6.3-1.3-12.3-4.7-15.8-10c-4.2-6.2-4.7-14.1-5.1-21.5c-0.4-8.3-1-16.6-1.4-24.9
	c-0.1-1.3-0.1-2.5-0.2-3.8v0c-0.1-1.5-0.1-3-0.2-4.5c0-0.6,0-1.1-0.1-1.7c-0.1-1.6-0.1-3.4-0.1-5.1c0,0,0,0,0,0
	c0-2.2,0.2-4.4,0.6-6.5c0.9-0.9,2.1-1.5,3.5-1.5c6,0,3.8,11.2,3.9,15.1c0.4,13.5,1.8,27.1,6.2,39.9c2.4,6.8,6.2,13.8,12.9,16.3
	c5.4,2,11.3,0.7,17.1,0.7C199.1,253.2,211.1,260.2,217.3,270.7z"/>
<path style="fill:#6666FF;" d="M294.8,145.5c0,0.7-0.2,1.4-0.7,2.1c-1.5,2.5-6.8-0.3-9.3,0.1c-4.4,0.7-8.6,4-10.3,8.1
	c-0.9,2.1-1.2,4.4-1.9,6.6c-2.1,7.6-7.2,14-12.5,19.7c-7,7.6-15.1,14.6-24.8,18.2c-12.7,4.7-33.2,4.8-45.4-1.5
	c-1.8-0.9-3.4-1.9-4.9-2.9c-1-0.7-1.9-1.4-2.8-2.1c-0.8-0.7-1.6-1.4-2.3-2.2c-3.5-3.6-5.9-8-7.1-13.8c-0.2-1-0.4-1.9-0.5-3
	c-0.1-0.4-0.1-0.8-0.1-1.2c-1.2-14,11.2-23.2,25-18.5c1.1,0.4,2.1,0.8,3.1,1.3c5.2,2.6,9.7,6.8,15.3,8.1c1.1,0.3,2.3,0.4,3.4,0.4
	c6.4,0.2,12.7-3.1,17.9-7.1c6.4-5,11.8-11.1,18.2-16.2c6.4-5.1,14.1-9.1,22.2-8.7C281.2,133.3,295,139.2,294.8,145.5z"/>
<path style="fill:#9999FF;" d="M294.8,145.5c0,0.7-0.2,1.4-0.7,2.1c-1.5,2.5-6.8-0.3-9.3,0.1c-4.4,0.7-8.6,4-10.3,8.1
	c-0.9,2.1-1.2,4.4-1.9,6.6c-2.1,7.6-7.2,14-12.5,19.7c-7,7.6-15.1,14.6-24.8,18.2c-12.7,4.7-33.2,4.8-45.4-1.5
	c-1.8-0.9-3.4-1.9-4.9-2.9c-1-0.7-1.9-1.4-2.8-2.1c-0.3-1.3-0.6-2.5-1-3.7c-2.9-8.4-4.2-15.8,6.1-8.5c7.6,5.4,14.6,8.7,24.2,9
	c16.9,0.6,34.3-7.9,43.2-22.5c3.7-5.9,6-12.6,10.3-18.1c4.3-5.5,11.5-9.6,18.1-7.4c2.7,0.9,5.1,2.7,7.9,3.2
	C292.4,146,293.6,145.9,294.8,145.5z"/>
<path style="fill:#0000FF;" d="M148.6,21.3c-4-1.4-8-0.9-12.2,0.4c-3,0.9-9.3,6.6-11.5,6.6c-12.1,11.4-25,21.8-36.8,33.6
	c-4.7,4.7-9.7,11.2-7.9,17.9c2,7.4,10.5,9.1,17.4,9.5c7.5,0.4,15.1,0.7,22.6,0.9c24.4,0.7,49.9,0,71.4-12.9
	C213.7,64.3,160.3,25.3,148.6,21.3z"/>
<path style="fill:#0000FF;" d="M219,165.2c-1.1,1.7-2.2,3.3-3.4,4.9c-5.8,8.2-11.8,16.7-20.5,21.7c-3.2,1.8-6.5,3.1-10,4.2
	c-1.9-1.3-3.7-2.7-5.2-4.2c0.4,1.8,0.7,3.6,1,5.4c-1.6,0.4-3.2,0.8-4.8,1.2c-10.8,2.6-21.9,5.2-32.9,6.1c-0.2,0-0.3,0-0.5,0
	c-6,0.5-11.9,0.4-17.9-0.3c-3.1-0.4-6.2-1.1-9.3-1.9h0c-3.3-0.9-6.5-2.1-9.6-3.5c-0.2-0.1-0.3-0.1-0.5-0.2h0
	c-1.3-0.6-2.6-1.2-3.9-1.9C88.8,189.9,78,179.4,71,166.8c-0.3-0.6-0.6-1.2-1-1.8c3.2,0.1,6.4-0.7,9.1-2.5c4.4-3,7-8.6,6.4-13.9
	l20,12.1c3.6,1.1,6.1,4.5,7,8.1c0.9,3.6,0.6,7.4,0,11.1c0,0,0,0,0,0.1l27.3-3.9c1.3,4.3,2.3,8.7,2.8,13.1c0-4.5,0.6-9.2,3.6-12.7
	c4.5-5.4,14.4-8.3,20.9-5.9c2,0.7,3.6,1.8,5,3.2c-1.2-14,11.2-23.2,25-18.5c1.1,0.4,2.1,0.8,3.1,1.3c5.2,2.6,9.7,6.8,15.3,8.1
	C216.8,165,217.9,165.2,219,165.2z"/>
<path style="fill:#6666FF;" d="M176.5,52.5c0.8,1.4,1.5,2.7,2.3,4.1c10,18.6,17.7,38.4,24.9,58.2c6.1,16.7,10.4,37.8,0.5,53.9
	c-9.7,15.7-39.6,15.8-56.2,18c-21.7,2.9-63.2-0.3-71.4-26.1c-3.4-10.6-0.7-24.5,2.1-35c6.6-24.8,15.2-49.6,27-72.3
	c7.8-14.9,17.8-36.6,38.3-34c8.7,1.1,15.3,6,20.1,13.1C168.4,38.8,172.6,45.6,176.5,52.5z"/>
<path style="fill:#9999FF;" d="M119.6,37.5c-1.8,3.9-3.5,8.7-1,12.2c1.8,2.5,5.1,3.4,8.2,3.5c5.1,0.1,10.3-1.9,13.8-5.7
	c3.5-3.8,5.1-9.3,3.7-14.3c-0.4-1.6-1.2-3.2-2.6-4.2c-1-0.8-2.2-1.2-3.5-1.4C129,25.5,123.6,29.2,119.6,37.5z"/>
<path style="fill:#9999FF;" d="M114,55.1c-1-0.3-2.1,0.4-2.7,1.3c-0.6,0.9-0.7,2-0.8,3.1c-0.2,1.3-0.3,2.7,0.6,3.7
	c0.5,0.6,1.3,0.9,2.1,1c2.8,0.2,5.3-2.6,4.8-5.3c-0.5-2.7-4-4.4-6.4-3.2C112.2,54.2,112.4,54.8,114,55.1z"/>
<path style="fill:#0000FF;" d="M265.4,172.2c0.5,0.2,1.1,0.2,1.7,0.1c2.5-0.4,4.8-1.8,6.3-3.7c3.1-3.8,5.2-14.3-2.8-11.5
	c-2.6,0.9-4.7,3-5.9,5.5C263.7,164.8,262.1,171,265.4,172.2z"/>
<path style="fill:#0000FF;" d="M242.7,196.5c0.4,0.4,0.9,0.7,1.4,0.9c2.4,0.9,5,0.7,7.4-0.3c4.5-1.9,11.3-10.1,3-11.5
	c-2.8-0.5-5.6,0.4-7.8,2.1C244.8,189.2,240.4,193.9,242.7,196.5z"/>
<path style="fill:#0000FF;" d="M205.1,201.7c0.1,0.6,0.4,1.1,0.8,1.5c1.6,1.9,4,3.1,6.5,3.5c4.8,0.7,14.9-3,8.4-8.4
	c-2.1-1.8-5-2.5-7.7-2.2C210.6,196.4,204.5,198.3,205.1,201.7z"/>
<path style="fill:#0000FF;" d="M62.2,209c0.1,0.6,0.4,1.1,0.8,1.5c1.6,1.9,4,3.1,6.5,3.5c4.8,0.7,14.9-3,8.4-8.4
	c-2.1-1.8-5-2.5-7.7-2.2C67.7,203.7,61.5,205.6,62.2,209z"/>
<path style="fill:#0000FF;" d="M35.5,190.6c-0.3,0.5-0.4,1.1-0.5,1.6c-0.2,2.5,0.8,5,2.3,7c3,3.8,12.8,8.1,11.9-0.3
	c-0.3-2.8-1.9-5.2-4.1-6.9C43.1,190.5,37.4,187.7,35.5,190.6z"/>
<path style="fill:#0000FF;" d="M23.8,159.6c-0.4,0.2-0.6,0.6-0.8,1c-0.9,1.8-1,3.8-0.4,5.7c1,3.6,6.8,9.6,8.6,3.3
	c0.6-2.1,0.2-4.3-0.9-6.2C29.3,161.8,26.1,158,23.8,159.6z"/>
<path style="fill:#0000FF;" d="M158.7,260.8c0.1,0.6,0.4,1,0.7,1.5c1.5,1.9,3.8,3.2,6.3,3.6c4.7,0.8,14.7-2.5,8.4-8
	c-2-1.8-4.8-2.5-7.5-2.3C164.2,255.7,158.2,257.4,158.7,260.8z"/>
<path style="fill:#0000FF;" d="M144.4,222.9c-0.5,0.1-1,0.5-1.4,0.9c-1.8,1.7-2.9,4.1-3.1,6.5c-0.4,4.7,3.6,14.4,8.6,7.8
	c1.7-2.2,2.2-5,1.7-7.7C149.8,228,147.7,222.1,144.4,222.9z"/>
<path style="fill:#0000FF;" d="M135.7,226.6c-0.4-0.2-0.9-0.3-1.4-0.3c-2.1,0-4.1,0.9-5.7,2.3c-3,2.7-6.1,11,0.9,9.8
	c2.3-0.4,4.3-1.9,5.5-3.8C136.1,232.9,138.2,228,135.7,226.6z"/>
<path style="fill:#0000FF;" d="M115.6,246.2c-0.3-0.4-0.7-0.6-1.2-0.8c-2-0.8-4.3-0.8-6.3,0c-3.9,1.4-10,8.2-3,9.7
	c2.3,0.5,4.8-0.1,6.7-1.5C113.6,252.4,117.5,248.5,115.6,246.2z"/>
<path style="fill:#0000FF;" d="M92.8,255.2c-0.4-0.2-0.8-0.3-1.2-0.3c-1.8-0.1-3.7,0.6-5.1,1.8c-2.8,2.3-5.8,9.5,0.3,8.7
	c2-0.3,3.8-1.5,5-3.1C92.9,260.8,95,256.6,92.8,255.2z"/>
<g>
	<path style="fill:#FFFFFF;" d="M192.7,166.4c-2.6-4.5-6.2-8.3-11.4-10.3c-8.5-3.3-19.7-2-26.5,4.4c-9.1,8.6-7.4,23.4,1.9,31.2
		c9.7,8.1,26.8,11,35.6,0.1C198.4,184.4,197.2,174.3,192.7,166.4z"/>
	<path style="fill:#1D1D1B;" d="M163.9,176.3c-0.9,11.2,11.3,19.4,21.3,14.7c6.4-3,9.3-8.9,8.3-16c-0.6-4.2-3.5-7.9-7.3-9.8
		c-7.6-3.9-18.2-1.5-21.4,7C164.3,173.6,164,175,163.9,176.3z"/>
	<path style="fill:#FFFFFF;" d="M179.9,167.3c-2.1,0.9-3.9,3.2-3.9,6.1c0,0.9,0.5,1.8,1.2,2.4c1.7,1.6,4.4,1.8,6.4,0.7
		c2-1.2,3-3.7,2.4-5.9C185,166.9,182.3,166.3,179.9,167.3z"/>
</g>
<g>
	<path style="fill:#FFFFFF;" d="M131.9,176.5c-2.1-3.8-5.2-6.9-9.5-8.6c-7.1-2.8-16.5-1.7-22.2,3.7c-7.7,7.3-6.2,19.7,1.6,26.2
		c8.1,6.8,22.5,9.2,29.9,0.1C136.6,191.7,135.6,183.1,131.9,176.5z"/>
	<path style="fill:#1D1D1B;" d="M107.7,184.8c-0.8,9.4,9.5,16.3,17.9,12.3c5.4-2.5,7.8-7.5,7-13.4c-0.5-3.5-3-6.6-6.1-8.2
		c-6.4-3.3-15.2-1.2-18,5.9C108,182.6,107.8,183.7,107.7,184.8z"/>
	<path style="fill:#FFFFFF;" d="M121.1,177.3c-1.8,0.8-3.3,2.7-3.2,5.1c0,0.8,0.4,1.5,1,2c1.4,1.3,3.7,1.5,5.3,0.5
		c1.6-1,2.5-3.1,2-5C125.4,177,123.1,176.4,121.1,177.3z"/>
</g>
</svg>
