<svg id="Layer_1" data-name="Layer 1" xmlns="http://www.w3.org/2000/svg" viewBox="0 0 300 300"><defs><style>.cls-1{fill:#3e63ad;}.cls-2{fill:#1b4686;}.cls-3{fill:#f8e904;}.cls-4{fill:#fff;}.cls-5{fill:#e66f24;}</style></defs><title>assets_icon</title><path class="cls-1" d="M228.27,217.46c-7.11,12.27-18.91,21.31-31.81,27.18s-26.94,8.78-40.94,11c-20,3.11-41.41,4.6-59.46-4.5,5.67-4.53,6.2-12.87,5.57-20.1a113.27,113.27,0,0,0-7.13-30.7,474.47,474.47,0,0,1,126.78,4.52Z"/><path class="cls-2" d="M148.75,247.84c3.25-2.31,6.34-4.8,9.64-7.08a93.75,93.75,0,0,0,8.85-6.9,48.47,48.47,0,0,0,7.31-8c1-1.45,2-3,2.89-4.49s1.77-3.49,3.17-4.77a1.49,1.49,0,0,1,2.47.65c.69,3.63-1.57,7.72-3.49,10.68a46.76,46.76,0,0,1-8.34,9.42,68.13,68.13,0,0,1-10.14,7.31,65.07,65.07,0,0,1-11.58,5.07c-1.14.42-1.64-1.23-.78-1.85Z"/><path class="cls-2" d="M122.71,246.3c.29-2.31,2.5-3.79,4.12-5.26a33,33,0,0,0,5.56-6.46,43.05,43.05,0,0,0,3.76-7.22c1.06-2.57,1.84-5.25,3.46-7.52a.8.8,0,0,1,1.44.19c2.22,5.48-1.23,12.55-4.32,17.08a38.32,38.32,0,0,1-6.19,7.08c-1.76,1.56-4.55,4-7.09,3.08a1,1,0,0,1-.74-1Z"/><path class="cls-2" d="M113.94,238.07a75.4,75.4,0,0,0,2.08-9.28c.45-2.61.28-5.8,2-7.94a1.37,1.37,0,0,1,2.13.27c1.68,2.35.73,6.22.1,8.83a30.18,30.18,0,0,1-4.13,9c-.7,1.09-2.57.41-2.16-.91Z"/><path class="cls-1" d="M137.35,44.23c-29.21-5.35-61.51-1.61-84.69,17A42.2,42.2,0,0,1,88,88.88c6.83,19.91-2.23,41.59-1.56,62.63.08,2.28.34,4.74,1.85,6.45,3.26,3.66,9.24,1.37,13.45-1.13L185.64,107c6.81-4,25.31-9.84,27.45-18.5S200.76,72,194.8,67.83A148.77,148.77,0,0,0,137.35,44.23Z"/><path class="cls-2" d="M127,55.73a51.63,51.63,0,0,1,8.59,2.05c2.6,1,5.18,2.1,7.7,3.31a113.92,113.92,0,0,1,14.95,8.63,121.28,121.28,0,0,1,13.18,10.41c4.24,3.86,8.35,7.88,11.12,13a.74.74,0,0,1-1.16.89c-4.18-3.55-7.74-7.71-11.76-11.45A107.76,107.76,0,0,0,156.41,72a113.54,113.54,0,0,0-13.85-8c-2.66-1.31-5.36-2.53-8.11-3.64s-5.08-2.54-7.71-3.65a.51.51,0,0,1,.27-1Z"/><path class="cls-2" d="M110.81,61c2.3,1,4.33,1.62,6.42,3.06,1.94,1.33,3.82,2.75,5.63,4.23a82.64,82.64,0,0,1,10.45,10.21,79.5,79.5,0,0,1,8,11.22c2.21,3.73,5.31,8.24,4.64,12.75-.19,1.28-2,1.05-2.38,0-2.67-8.46-7.91-16.24-13.62-22.95a83.18,83.18,0,0,0-8.82-8.89q-2.7-2.34-5.61-4.42c-1.87-1.34-3.37-3-5.19-4.36a.49.49,0,0,1,.5-.85Z"/><path class="cls-2" d="M91.55,66.36c2,.13,3.41,1.57,4.85,2.79a62.63,62.63,0,0,1,5.28,5,64.29,64.29,0,0,1,8.65,11.69,66.2,66.2,0,0,1,5.73,12.94,62.81,62.81,0,0,1,1.81,7c.38,2,1.16,4.33.22,6.2a1.14,1.14,0,0,1-1.78.23c-1.27-1.54-1.15-3.67-1.52-5.58a61.27,61.27,0,0,0-1.56-6.28,62.47,62.47,0,0,0-5.63-13,64.83,64.83,0,0,0-8.08-11.12,61.71,61.71,0,0,0-4.59-4.56c-1.5-1.34-3.42-2.45-4.16-4.38a.82.82,0,0,1,.78-1Z"/><path class="cls-1" d="M67.52,226.39A63.55,63.55,0,0,0,74,217.63c7-11.48,8-24.15,6.25-36.95-2.36-17-11.33-34.36-26.65-43a49,49,0,0,0-20-6c-2.3-.18-20,2.73-20.12,2.61C40.15,163.21,51,206,41.31,244.19,52.14,239.45,60.55,234.3,67.52,226.39Z"/><path class="cls-2" d="M37.76,145.59c7.7,3.08,13.27,8.84,18.74,14.9,2.78,3.09,5.07,6.56,8.26,9.28S71.91,174.07,75,177c.24.22,0,.53-.28.49-3.94-.57-6.47-3.07-9.33-5.61-3.08-2.76-6.32-5.32-9.46-8C49.59,158.33,44,152,37.1,147.17c-.74-.52-.31-2,.66-1.58Z"/><path class="cls-2" d="M45.34,170.18c4.82.93,8.91,3.84,13.85,4.69a30.28,30.28,0,0,0,7.24.33c2.15-.14,4.84-1.3,6.78,0A1.38,1.38,0,0,1,73.7,177c-1.2,2.31-4.55,2.31-6.85,2.51a34.84,34.84,0,0,1-8.41-.38c-5.12-.82-11.63-2.63-14.27-7.44a1,1,0,0,1,1.17-1.52Z"/><path class="cls-2" d="M52.74,194.85a24.84,24.84,0,0,1,6.13-11.39c2.26-2.51,6.2-6.68,9.93-6a1.06,1.06,0,0,1,.74,1.3c-.83,3.08-5,5.44-7.1,7.68a89.91,89.91,0,0,0-7.54,9.33,1.19,1.19,0,0,1-2.16-.91Z"/><path class="cls-2" d="M59.78,211.83c1.53-3.3,2.61-6.91,3.91-10.3a55.8,55.8,0,0,0,2.79-10.14c.57-3.15,1-6.39,1.85-9.47.69-2.48,1.77-6.3,4.13-7.63a1,1,0,0,1,1.49.85c.15,1.55-.56,3-.89,4.48-.37,1.7-.61,3.45-.87,5.17-.5,3.37-.77,6.75-1.54,10.08a52.82,52.82,0,0,1-3.27,9.71c-1.48,3.29-3.74,5.76-6.1,8.41-.77.87-1.93-.23-1.5-1.16Z"/><path class="cls-3" d="M269,163.24c2.44-5.23,4.9-10.58,7.53-16,3.87-8,16.24-16.32,6.28-25.47-8-7.37-21.46-5.55-30.42-11.23-20.93-13.26-37.91-28.89-63.46-31-12.06-1-24.52.8-36.12,4.31-3.78,1.14-7.46,2.46-11,3.92q-5.53,2.28-10.78,5A101.71,101.71,0,0,0,109,107.78a73,73,0,0,0-15.63,20,68.9,68.9,0,0,0-5.21,13.15,103.82,103.82,0,0,0-4.18,22.91,57.14,57.14,0,0,0,.69,12.32,85.76,85.76,0,0,0,6.12,20.45c7.55,16.8,20.71,29.46,39.68,35.57a117.21,117.21,0,0,0,85.51-5.78C245.14,212.45,256.81,189.4,269,163.24Z"/><path class="cls-1" d="M190.5,145.75c3.31,8.89,8.28,18,15.23,19-7.72-11.09-12-26.94-11.64-42.66.37-14.56,4.8-28.8,12-38.95a68.29,68.29,0,0,0-17.18-3.61h0a68.66,68.66,0,0,0-5.73,27.06C183,120.23,186,133.7,190.5,145.75Z"/><path class="cls-1" d="M131,92.71c.3,3.39.75,6.75,1.34,10.05,2.62,14.88,7.63,28.62,12.75,42.07,2.13,5.61,4.35,11.29,7.55,15.71s7.61,7.46,12,6.63c0-4.38-1.82-8.26-3.42-12-9-21-11.92-47.2-8.44-71.39-3.78,1.14-7.46,2.46-11,3.92Q136.28,90,131,92.71Z"/><path class="cls-1" d="M93.33,127.79a76.6,76.6,0,0,0,7.27,27c7.91,15.82,22.16,25,35.42,21.28-10.54-8.12-18.35-22.6-22.65-38.7A144.32,144.32,0,0,1,109,107.78,73,73,0,0,0,93.33,127.79Z"/><path class="cls-3" d="M88,153.29c-.41,10.06-10,18.81-20.07,18.3a9.42,9.42,0,0,0-4.07.23c-2.71,1.11-3.15,5.07-1.56,7.52s4.42,3.75,7.13,4.86c6.33,2.59,12.91,5,18.16,9.37,6.12,5.12,9.92,12.54,15.87,17.85,10.93,9.77,28.9,10.41,40.5,1.45Z"/><path class="cls-4" d="M253.66,129.58c2.35,18.18-17.45,30.67-34,27-19-4.28-22.33-32.62-8.53-44.18,10.43-8.74,25.16-8.38,34.57,1.67C250.54,119.21,253,124.52,253.66,129.58Z"/><path d="M215.52,139.07a13.66,13.66,0,0,1,2.84-26c12-2.44,21.74,11.83,13.38,21.46C227.54,139.32,221.76,141.85,215.52,139.07Z"/><path class="cls-4" d="M215,127.27c-4.47.79-7.67-5-4.37-8.35,2.64-2.64,7.28-2.37,8.17,1.34C219.51,123.35,218.44,126.67,215,127.27Z"/><path class="cls-5" d="M228.11,165.59A29.78,29.78,0,0,0,238,178.88c3.37,2.56,8,4.38,11.76,2.4a11.62,11.62,0,0,0,4-4.12c2.91-4.52,5.48-10.6,5-16C248.81,166.34,239.34,170.69,228.11,165.59Z"/><path class="cls-1" d="M183.19,190.71c-.8-1.65-2.27-2.85-3.54-4.17-15.87-16.64,12.95-37.74,19.94-19.77,2.83,7.28,0,21.26-2.75,28.21-1.54,3.85-4.77,10.31-10.12,7.15C183,199.91,184.84,194.13,183.19,190.71Z"/><path class="cls-1" d="M196.37,161.16a28.49,28.49,0,0,0-25.15-6.5c-2.64.61-5.67,2.26-5.61,5,.07,3.51,4.88,4.56,7.12,7.27,2.66,3.22,1.24,8.26,3.18,12,2.2,4.19,7.68,5.14,12.4,5.6Z"/></svg>