<?xml version="1.0" encoding="utf-8"?>
<!-- Generator: Adobe Illustrator 22.0.1, SVG Export Plug-In . SVG Version: 6.00 Build 0)  -->
<svg version="1.1" id="Layer_1" xmlns="http://www.w3.org/2000/svg" xmlns:xlink="http://www.w3.org/1999/xlink" x="0px" y="0px"
	 width="300px" height="300px" viewBox="0 0 300 300" style="enable-background:new 0 0 300 300;" xml:space="preserve">
<path style="fill:#E8EC7A;" d="M182.5,104.9c-5.6-4.1-11.2-8.9-13.5-15.5c-2.4-7-1.7-14.5,0.8-21.4c2.3-6.4,7.6-12.1,14.2-14.3
	c3.7-1.3,6.5-1.7,10.1-1.7c2.2,0,2,0,3.7,0.4c0.8,0.2,1.5,0.4,2.3,0.6c0.3,0.1,3,1.2,1.7,0.6C212.3,58.2,216,69,215,80.6
	c-0.2,2.5,0.3-1.7-0.1,0.8c-0.1,0.7-0.3,1.5-0.5,2.2c-0.2,0.7-1.5,4.3-0.9,2.9c-1.6,3.7-2.5,4.8-4.7,6.9c-1.4,1.4-4.4,3.4-5.8,4
	c-4.3,1.8-10.1,1.5-13.6,5c-4.6,4.6-2.5,11.9,3.6,13.6c4.5,1.2,10.3-0.6,14.5-2.2c7.7-3,13.9-7.9,18.4-14.8
	c8.2-12.4,7.3-28.7,1.1-41.6c-6.5-13.5-20.7-21.9-35.6-21c-19.1,1.2-34.1,14.5-38.1,33.1c-3.8,17.6,5.7,46,28.3,41.7
	C184.9,110.5,184.6,106.5,182.5,104.9L182.5,104.9z"/>
<path style="fill:#E8EC7A;" d="M102.5,124.9c-10.4-4.1-20.5-7-23.3-18.6c-2.8-11.7,6.7-19.9,16.5-22.8c4.7-1.4,9.7-1.3,13.2,0.3
	c4.6,2.1,7.5,7.1,7.9,12.8c0.5,6.7-2.1,13.1-5.7,18.6c-1.8,2.8-4.1,5.1-6.6,7.2c-0.5,0.4-2.2,1.5-3.1,2.4c-0.8,0.7-0.9,0.7-0.2,0.1
	c-1,0.7-1.7,1.4-2.6,2.1c5.2,2.1,10.4,4.3,15.5,6.4c0,0,0-0.1,0-0.1c-0.4,1.5-0.8,3.1-1.2,4.6c0.1-0.2,0.2-0.4,0.3-0.6
	c4.4-7.3-4.7-17.6-12.2-12.2c-1.4,1-3.1,2-3.8,3.8c-3,7,1.8,15.6,10.3,13.4c4.8-1.3,7.1-4.3,10.2-6.7c3.8-3,6.8-7,9.4-11
	c5.8-8.7,9.1-20.1,7.9-30.5c-1.2-10.9-6.9-20.9-16.8-26.1c-8.4-4.4-18.3-4.5-27.3-2.2C71.5,71,58.3,88.6,61.2,108.7
	c2.6,17.9,22.9,34.9,41.3,28.4C108.7,134.9,108.4,127.2,102.5,124.9L102.5,124.9z"/>
<path style="fill:#E8EC7A;" d="M182.4,108.4c2.6-5.1-3.2-11.8-5.3-16.4c-2.3-4.9-4.3-10.1-4.7-15.4c-0.3-4.7,0.6-9.4,3.6-12.8
	c4.4-5.2,11.8-7.8,18.4-8.4c14.7-1.4,21.3,11.1,18.7,24.4c-1.3,6.6-4.5,10.4-9.9,13.2c-6.5,3.4-17.9,1.7-22.5,9.1
	c-1.9,3-1.2,7,1.2,9.5c7.3,7.5,23.5,0.9,31.3-3.4c9.3-5.2,15.2-14.6,16.9-25c1.9-11.1,0.2-22.2-6.8-31.2c-6.3-8.2-16.5-12-26.6-12
	c-19.5-0.1-38,13-38.7,33.2c-0.3,8.4,2.7,16.7,6.5,24c1.8,3.4,4.6,7.1,7.5,9.6C174.3,108.6,180.2,112.8,182.4,108.4L182.4,108.4z"/>
<path style="fill:#D9E021;" d="M256.5,153.9c-2.7,0.1-3.2,0.3-1.6,0.4c0.3,0,0.6-0.1,0.8-0.1c0.6-0.2,1-0.5,1.6-0.7
	c1.5-0.5,3.4-0.6,5-0.9c3.1-0.6,6.2-0.9,9.3-1.1c3.2-0.2,6.5-0.4,9.7-0.1c2.1,0.2,4.4,0.7,5.3,2.8c0.4,0.8,0.5,1.7,0.6,2.6
	c0,0.6-0.1,1.3,0,1.9c0,0.2,0,0.5-0.1,0.7c0.4-0.3,0.7-0.6,1.1-0.9c0-0.1-3.7-0.2-3.9-0.3c-1.6-0.2-3.3-0.5-4.9-0.8
	c-3.1-0.6-6.2-1.4-9.3-2.3c-1.4-0.4-2.9-0.7-4.3-1.2c-0.7-0.2-2.1-0.6-2.6-1.2c-0.5,2-1.1,4-1.6,6c7-3.5,15.5-3.2,22.4,0.5
	c0.4-2.7,0.7-5.4,1.1-8.1c-3.9,0.9-7.7,0.8-11.4-0.4c-4-1.3-8.1-2.4-11.9,0c-3.4,2.2-2.4,8.5,2.2,8.2c3.8-0.3,7.4-0.6,10.4-3
	c1.4-1.1,0.8-3.5-0.6-4.4c-3-1.8-6.5-1.6-9.9-1.4c0.7,2.7,1.5,5.5,2.2,8.2c1-0.7,2.4,0,3.5,0.4c1.7,0.5,3.4,1.1,5.3,1.4
	c4.2,0.7,8.4,0.6,12.5-0.4c3.7-0.9,4.4-6.3,1.1-8.1c-9.7-5.3-21.4-5.5-31.3-0.5c-2,1-2.9,4.2-1.6,6c4,5.4,11.4,6.4,17.5,7.8
	c3.5,0.8,7,1.5,10.5,1.9c3.3,0.4,7.1,0.9,9.7-1.7c4.5-4.3,2.6-13.3-0.9-17.6c-4.3-5.2-12-5-18.1-4.7c-3.9,0.2-7.9,0.8-11.7,1.7
	c-3.2,0.7-7.8,1.5-10,4.2c-1,1.2-1.3,2.8-0.2,4.1C253.3,154.2,255.2,154.9,256.5,153.9L256.5,153.9z"/>
<path style="fill:#D9E021;" d="M108.5,226.4c-2.9,2.8-4.7,6.8-6.3,10.5c-1.7,3.8-3,7.9-3.9,11.9c-0.9,3.9-0.9,7.9,1.7,11.1
	c2.4,3,6.2,4.4,10,3.7c8.6-1.6,10-12.2,10.9-19.4c0.6-4.2,0.7-8.9-0.6-13c-1.3-4.1-5.9-7.7-10.2-5.2c-2.2,1.3-2.7,4.8-3.3,7.2
	c-0.6,2.3-1.2,4.7-1.6,7.1c-1,5-1.7,10.1-2.4,15.2c-0.3,2.1,0.3,4.1,2.4,5c1.8,0.7,4.3,0.2,5.3-1.7c3.5-7.2,5.6-14.8,6.4-22.8
	c0.5-4.7-7.5-5.8-8.3-1.1c-0.9,5.5-1.7,11.1-2.6,16.6c-0.4,2.8-0.9,6.3,2.3,7.6c2.7,1.1,6-0.8,5.8-3.9c-0.2-3.9-4.7-4.8-6.9-1.9
	c0,0.1-0.1,0.1-0.1,0.2c1.1-0.6,2.2-1.3,3.3-1.9c-0.1,0-0.2,0-0.3,0c0.9,0.4,1.8,0.8,2.7,1.1c-0.1-0.1-0.1-0.1-0.2-0.2
	c0.4,0.9,0.8,1.9,1.2,2.8c0,1,0.2-1.1,0.2-1.3c0.1-0.8,0.2-1.6,0.4-2.4c0.2-1.6,0.5-3.2,0.7-4.9c0.5-3.2,1-6.5,1.5-9.7
	c-2.8-0.4-5.5-0.7-8.3-1.1c-0.6,6.4-2.4,12.7-5.3,18.5c2.6,1.1,5.1,2.2,7.7,3.2c1.3-9.1,2.6-18.2,5.4-26.9c-1,1-2,2-2.9,2.9
	c-0.7,0.2-0.9-0.7-1.1-0.2c-0.1,0.3,0.2,0.9,0.3,1.2c0.3,1.3,0.4,2.6,0.4,3.9c0,2.8-0.3,5.6-0.8,8.3c-0.5,2.7-0.6,11-5.5,9.4
	c-4.6-1.5-1.4-9.5-0.5-12.5c0.8-2.5,1.6-5.1,2.5-7.6c1-2.7,2.3-5.3,3-8.1C112.2,226.4,109.9,225,108.5,226.4L108.5,226.4z"/>
<path style="fill:#D9E021;" d="M86.5,213.9c-8.5,6.6-21.1,14.2-21.2,26.5c0,5.9,3.9,10.7,9.9,11.3c5.8,0.5,10.6-3,13.7-7.6
	c3.5-5.1,5.4-11.4,7.7-17.1c0.9-2.2,1.8-4.4,1.6-6.9c-0.3-3.5-3-6.1-6.6-5.8c-3,0.2-5.7,2.5-7.8,4.6c-2.3,2.2-4.1,4.8-5.9,7.4
	c-1.7,2.5-3.3,5.2-4.8,7.8c-1.6,2.8-4.1,6.2-4.3,9.5c-0.3,4.1,3.2,7.1,7.2,6.3c3.6-0.7,5.5-4.1,7.3-7c1.9-3,3.7-6.2,5.3-9.4
	c0.8-1.6,1.5-3.2,2.3-4.9c0.8-1.8,1.8-3.6,1.7-5.6c-0.6,1.1-1.3,2.2-1.9,3.3c0.2-0.1,0.4-0.2,0.7-0.3c2.5-1.3,1.9-4.4,0-5.8
	c-0.2-0.2-0.4-0.3-0.7-0.5c-1.3-1-3.6-0.5-4.7,0.6c-1.6,1.7-2.3,4.2-3.3,6.3c-1,2.1-2,4.2-3.1,6.2c-1,1.8-2,3.6-3.1,5.3
	c-0.6,1-1.2,2-1.9,2.9c-0.1,0.2-0.5,0.6-0.6,0.8c-0.3,0.3-0.3,0.3,0.1,0.1c1.4,2.9,2.4,3.7,2.9,2.2c1.3-1.6,2.1-4,3.1-5.8
	c1.1-2,2.3-4,3.6-5.9c2.1-3.3,4.3-6.8,7.4-9.1c0.1-0.1,1.2-0.8,1.2-0.8c0-0.1-3.4-1.1-2.6-1.8c-0.1,0.1-0.2,1.2-0.3,1.5
	c-0.7,2.2-1.7,4.3-2.6,6.5c-1.6,3.9-2.8,8.1-5,11.7c-1.5,2.3-4.1,4.6-7.1,4c-3-0.6-2.8-4.2-2.2-6.5c1.2-4.2,4.3-7.5,7.4-10.3
	c1.7-1.6,3.5-3,5.2-4.6c2-1.7,3.4-3.6,4.9-5.8C92.1,214.4,88.5,212.3,86.5,213.9L86.5,213.9z"/>
<path style="fill:#D9E021;" d="M245.1,199c1.3,2.6,3.5,4.6,5.5,6.8c1.8,2,3.6,4.1,5.2,6.3c2.4,3.3,6.4,8.3,4.6,12.4
	c-0.3,0.8-0.7,1.2-1.4,1.6c-0.1,0.1-0.2,0.1-0.3,0.1c0.5-0.2,0.6,0.9,0-0.3c-1.3-2.7-3-5.3-4.4-8c-2.9-5.7-5.2-11.5-7.2-17.6
	c-1.4,1.9-2.9,3.8-4.3,5.7c2.7,0,5.4,5.6,6.8,7.7c1.4,2.1,2.8,4.2,4.2,6.2c0.7,1,1.4,2,2,3.1c0.1,0.2,0.2,0.5,0.4,0.8
	c0.4,0.7,0,0.9,0.3,0.2c1.7-0.7,3.4-1.4,5.1-2.1c-0.7-0.2-0.5-0.4-1-0.9c-1-1.2-1.9-1.8-3.3-2.3c-1.1-0.4-2.7,0-3.4,0.9
	c-3.9,4.5,0.7,9.7,5.3,11c2.6,0.7,4.6-0.9,5.5-3.1c1.3-3.2,0.2-6.7-1.5-9.5c-1.9-3.1-4.1-6.1-6.1-9.1c-3.5-5.1-7.2-11.9-14.3-11.8
	c-2.8,0-5.2,2.8-4.3,5.7c2.6,8,5.9,15.8,9.9,23.1c1.9,3.4,3.8,7.8,8,9c4.1,1.2,8.4-1.1,10.8-4.4c4.7-6.6,1.9-14.8-2.5-20.6
	c-2.3-3.1-4.8-6.3-7.7-8.9c-2.8-2.6-5.9-5.1-9.9-5.3C245.2,195.4,244.4,197.6,245.1,199L245.1,199z"/>
<path style="fill:#D9E021;" d="M254.8,183.8c2.6,3.4,5.9,5.9,9.4,8.3c3.5,2.4,7.5,4.8,11.4,6.5c4,1.7,8.5,0.9,10.7-3.1
	c1.9-3.4,1.2-7.5-0.6-10.7c-1.8-3.3-4.8-5.7-7.7-7.9c-3.4-2.5-6.8-5.1-10.3-7.5c-3.4-2.4-7.7-3.9-11.4-1.4c-3.5,2.3-4.2,7-2.6,10.6
	c1.9,4.3,6.5,6.4,10.4,8.6c4.5,2.5,9.1,5.1,13.6,7.6c3.6,2,8.8-2.3,6-6c-6-8.1-13.7-14.7-23-18.7c-2.2-0.9-4.7-0.6-6,1.6
	c-1.2,2-0.5,4.9,1.6,6c1.9,1,3.9,2,6.1,1.3c1.2-0.4,1.9-1.3,1.9-2.5c0.2-2.3-1.3-4-2.7-5.6c-1.8,2.3-3.6,4.6-5.3,6.9
	c7.8,3.4,14.8,8.6,19.9,15.5c2-2,4-4,6-6c-3.7-2.1-7.4-4.1-11-6.2c-2.9-1.6-6.4-3-8.8-5.2c-0.7-0.7-0.4-0.3-0.6-1
	c0.1,0.1,0,0.2,0,0.3c0.1-0.5,0.2-0.6,0.1-0.3c0,0-0.9,0.9-0.9,0.8c0.1,0.2,1.6,0.9,1.9,1.1c3.2,2.1,6.4,4.5,9.5,6.8
	c2.2,1.6,4.8,3.3,6.1,5.7c0.3,0.5,0.5,1,0.6,1.7c-0.1-0.4,0.2,0.6,0,0.3c-0.2,0.5-0.2,0.6-0.1,0.3c0.1-0.1,0.2-0.1,0.2-0.2
	c0.4-0.1,0.4-0.2,0-0.3c-0.3-0.1-0.5-0.2-0.7-0.3c-7.1-3-13.3-8.1-20.7-10.5C255.7,179.6,253.5,182,254.8,183.8L254.8,183.8z"/>
<path style="fill:#D9E021;" d="M77.2,193.4c-4.3-1.7-9.5,2.2-13,4.5c-3.9,2.6-7.6,5.5-10.9,8.7c-3.1,2.9-7,6.5-8.1,10.8
	c-1.1,4.7,1.6,9.9,6.6,10.4c5,0.5,9.1-3.6,12.8-6.4c3.9-3,7.8-6,11.6-9.1c3.2-2.6,7.7-6.2,7.9-10.7c0.1-2.7-1.7-5.1-4.2-5.9
	c-2.6-0.8-5.1,0.1-7.3,1.5c-8.6,5.4-16.7,12.2-23.1,20.1c-1.4,1.7-1.8,3.9-0.3,5.7c1.3,1.6,3.7,2.3,5.6,1.1c1.4-0.9,2.8-1.8,4.1-2.9
	c1.2-1.1,1.8-2.4,2.3-3.9c0.4-1.2-0.5-2.9-1.8-3.1c-1.6-0.2-3-0.4-4.5,0.1c-1.6,0.6-3.1,1.4-4.5,2.3c1.7,2.3,3.5,4.5,5.2,6.8
	c3.5-4,7.1-7.7,11.1-11.2c1.8-1.6,3.8-3.1,5.7-4.5c1-0.7,2-1.4,3-2.1c0.6-0.4,1.2-0.8,1.8-1.2c0.2-0.1,0.4-0.2,0.6-0.4
	c0.7-0.3,0.3-0.5-1.2-0.5c-0.4-0.6-0.7-1.3-1.1-1.9c0.4-1.4,0.4-1.6-0.1-0.6c-0.1,0.2-0.2,0.4-0.4,0.6c-0.3,0.5-0.7,0.9-1.1,1.3
	c-1,1-2.1,1.9-3.2,2.8c-2.5,2-5,4-7.5,6c-2.4,1.8-4.7,3.6-7.1,5.4c-0.2,0.1-3.5,2.3-3.5,2.2c0-0.1,0.4,0.4,0.7,0.2
	c-0.3,0.2,0.3-0.8,0.3-0.9c0.3-0.5,0.6-1,1-1.4c0.9-1.1,2-2.2,3-3.2c2.1-2.1,4.3-4.1,6.6-5.9c2.2-1.8,4.6-3.3,7-4.8
	c2.4-1.5,5.3-2.6,7.3-4.6C80.4,196.9,79.3,194.2,77.2,193.4L77.2,193.4z"/>
<path style="fill:#D9E021;" d="M175.4,99.5c0.3,5.7,2.2,11.6,3.6,17.1c0.7,2.9,5.4,3.1,6,0c0.9-4.2,1.4-8.3,1.3-12.6
	c-2.1,0.6-4.2,1.1-6.3,1.7c0.8,1.5,1,2.9,0.8,4.6c-0.3,2.9,4,4.6,5.9,2.4c1.9-2.2,2.8-4.5,3.2-7.4c-2.3,0-4.6,0-6.9,0
	c0.3,3.1,0.2,6.1-0.3,9.2c-0.3,1.6,0.2,3.1,1.6,4c1.3,0.7,3.3,0.6,4.3-0.6c2.6-3.1,4.7-6.5,6.3-10.2c-2.2-0.6-4.4-1.2-6.7-1.8
	c-0.3,3.1-1.1,6.1-2.3,9c-0.7,1.6,0.6,3.7,2.1,4.3c1.8,0.7,3.4,0,4.5-1.5c2.8-3.8,5.6-7.7,8.4-11.5c-2.2-0.9-4.4-1.9-6.6-2.8
	c-0.8,4.1-2.6,7.7-5.5,10.7c1.7,1.7,3.4,3.4,5.1,5.1c3.1-3.8,6.3-7.4,9.8-10.9c-1.9-1.5-3.8-2.9-5.7-4.4c-1.9,3.8-4.9,7.2-6.2,11.2
	c-0.8,2.4,1.9,3.7,3.8,2.9c4.2-1.8,6.8-6.6,8.7-10.5c1.7-3.6-2.6-7.4-5.7-4.4c-3.5,3.4-6.7,7.1-9.8,10.9c-1.2,1.5-1.5,3.6,0,5.1
	c1.4,1.4,3.7,1.4,5.1,0c3.8-3.8,6.4-8.6,7.4-13.9c0.8-4.1-4.2-6.1-6.6-2.8c-2.8,3.8-5.6,7.7-8.4,11.5c2.2,0.9,4.4,1.9,6.6,2.8
	c1.4-3.5,2.2-7.1,2.5-10.9c0.1-1.7-1.5-3.3-3.1-3.5c-1.9-0.2-3.2,0.9-3.9,2.6c-1.2,2.8-2.8,5.6-4.8,8c2,1.1,3.9,2.3,5.9,3.4
	c0.6-3.7,0.8-7.3,0.4-11.1c-0.4-4.4-6.5-4.5-6.9,0c-0.1,0.9-0.5,1.9-1.1,2.6c2,0.8,3.9,1.6,5.9,2.4c0.3-2.8-0.4-5.6-1.8-8
	c-1.6-2.9-6.4-1.7-6.3,1.7c0.1,3.6,0,7.4-0.6,11c2,0,4,0,6,0c-1.6-5.5-3-11.5-5.7-16.5C178.4,96.6,175.3,97.4,175.4,99.5L175.4,99.5
	z"/>
<path style="fill:#D9E021;" d="M101.1,131.2c0.3,2.1,2.6,4.2,4,5.7c1.8,1.8,4,3.3,6.1,4.6c3,1.8,6.6-2.6,3.8-4.9
	c-2.1-1.8-4.1-3.7-5.9-5.8c-1.6,1.6-3.2,3.2-4.7,4.7c2.6,2.7,6,4.6,9.7,5.2c3.3,0.5,5.7-3,3.3-5.7c-0.5-0.6-0.9-1.2-1.2-1.9
	c-0.2-0.4-0.3-0.8-0.4-1.3c0-0.7-0.2-0.6-0.5,0.4c-0.5,0.3-1,0.6-1.5,0.9c0.2,0,0.3-0.1,0.5-0.1c-0.6,0-1.2,0-1.8,0
	c0.1,0,0.3,0.1,0.4,0.1c-0.5-0.3-1-0.6-1.5-0.9c1.3,1,2,3.2,2.8,4.7c1.8,3.3,6.1,1.4,6.5-1.7c0.3-3.5,0.5-6.9,0.4-10.4
	c-2.3,0.3-4.6,0.6-6.9,0.9c0.6,2.6,1.3,5.3,1.9,7.9c2.3-0.6,4.5-1.2,6.8-1.9c-0.8-2.3-0.8-4.5-0.1-6.9c-2.3,0-4.6,0-6.8,0
	c0.4,2.3,0.7,4.6,0.9,6.9c0.2,2.4,0.2,4.8,1.4,6.9c1,1.8,3.8,1.8,4.8,0c1.3-2.4,1.1-5.1,0.8-7.7c-0.3-2.7-0.6-5.3-1.1-8
	c-0.7-3.6-5.9-3.1-6.8,0c-1.1,3.5-1,7.2,0.1,10.6c1.4,4.3,7.9,2.6,6.8-1.9c-0.7-2.6-1.3-5.3-2-7.9c-0.9-3.8-7-3-6.9,0.9
	c0.1,3.5,0,6.9-0.3,10.4c2.2-0.6,4.3-1.2,6.5-1.7c-1.1-2-2.1-4.4-3.8-6c-1.8-1.6-4.5-1.6-6.1,0.2c-3.2,3.3,0,9.4,2.5,12.1
	c1.1-1.9,2.2-3.8,3.3-5.7c-2.7-0.4-4.9-1.4-6.8-3.4c-3-3.1-7.6,1.5-4.7,4.7c2,2.3,4.4,4.3,6.9,6c1.1-1.8,2.1-3.6,3.2-5.4
	c-2.1-1-4.1-2.1-6.1-3.3c-1.7-1-3.7-2.8-5.7-3.1C101.7,129.5,101,130.2,101.1,131.2L101.1,131.2z"/>
<path style="fill:#D9E021;" d="M120.5,137.9c-1.5-2.8-3.4-5.3-4.8-8.2c-1.4-2.8-2-5.7-2.6-8.8c-0.9-4.7-8.7-3.7-8.4,1.1
	c0.5,7.9,5,17,12.6,20C119.7,143.1,121.6,139.9,120.5,137.9L120.5,137.9z"/>
<path style="fill:#E8EC7A;" d="M170.9,116.5c12.4-2.3,25.3-2.8,37.3,0.9c13,4,24.1,12.6,34.5,21.4c5.9,5,11.8,10.1,16,16.6
	c4.3,6.4,6.8,14.3,5.4,21.9c-0.9,5.1-3.5,9.7-6.3,14c-17.6,27.1-44.8,47.8-75.7,57.5c-10.6,3.3-21.8,5.4-32.8,4.2
	c-13.6-1.5-26.2-8-37.6-15.4c-10.7-7-21-15.3-28.6-25.7c-5.2-7.2-15.8-21.6-16.6-30.7c-0.9-11,16-19.8,23.6-25.5
	c11.3-8.5,23.1-16.4,35.6-23C140,125.3,155.1,119.5,170.9,116.5z"/>
<path style="fill:#D9E021;" d="M236.2,109.6c0.1-1.1,0.2-2.3,0.7-3.4c1.1-2.3,3.8-3.5,6.4-3.5c2.6,0,5,1,7.4,1.9
	c3.1,1.3,6.4,2.6,8.9,4.8c2.6,2.2,4.4,5.5,4.1,8.9c-0.2,1.6-0.9,3.2-1.6,4.6c-2.1,4-4.7,7.8-7.7,11.2c-4.4,5-14.9,11.1-20.3,4.1
	C228.9,131.6,235.4,117,236.2,109.6z"/>
<path style="fill:#F29A24;" d="M230.3,154.8c1,3.3,3.2,5.9,5.9,7.9c2.7,2,7.2,3.8,9.2-0.1c1.6-3.1,0-7.3-2.3-9.5
	c-2.4-2.4-5.9-3.7-9.2-3.3c-2.7,0.3-4.6,2.8-3.2,5.5c0.5,0.8,1,1.5,1.9,1.8c3.7,1.6,6.8-2.3,4.3-5.5c-0.1-0.1-0.2-0.2-0.3-0.3
	c0.3,0.5,0.6,1.1,0.9,1.6c0-0.1-0.1-0.3-0.1-0.4c-0.8,1.5-1.7,3-2.5,4.5c0.9-0.1,2,0.3,2.7,0.8c0.5,0.3,1,0.9,1.3,1.4
	c0.1,0.2,0.3,0.4,0.4,0.7c0.2,0.9,0.3,0.7,0.4-0.5c0.5-0.3,1-0.6,1.4-0.8c0.3-0.1-1.1-0.7-1.3-0.8c-0.8-0.4-1.6-0.9-2.3-1.4
	c-1.3-1-2.5-2.3-3.7-3.6C232.4,151.2,229.7,152.8,230.3,154.8L230.3,154.8z"/>
<path style="fill:#F29A24;" d="M223.3,156.6c0,0,0-0.1-0.1-0.1c-0.4-0.9-1.7-1.1-2.5-0.7c-1.4,0.9-2.2,2.5-1.7,4.2
	c0.5,1.6,2.5,2.9,4.2,2.4c1.5-0.4,2.4-2.5,2.4-3.9c0.1-1.5-0.5-3-1.6-3.9c-1.1-0.9-2.6-0.9-3.5,0.2c-0.9,1.1-0.5,2.7,0.7,3.5
	c0.3,0.2,0.1,0,0,0c0.1,0,0.2,0.3,0,0c0.1,0.1,0.1,0.2,0.2,0.3c-0.2-0.4,0,0.2,0,0c0-0.2,0,0.2,0,0.2c0,0.3,0.1-0.3,0,0
	c0,0-0.1,0.4-0.1,0.2c0.1-0.2-0.3,0.2,0,0c0.5-0.2,0.9-0.4,1.4-0.6c-0.7,0.1,0,0-0.1,0.1c-0.1,0.1,0-0.3,0,0c0,0.2,0.2,0.2,0,0.3
	c0.6-0.5,1.1-1.2,0.8-2.1C223.4,156.8,223.4,156.7,223.3,156.6L223.3,156.6z"/>
<path style="fill:#F29A24;" d="M229.5,166.3c-2.4,0-3.2,3.5-1.1,4.6c1.1,0.6,2.6,0.1,3.4-0.7c0.9-0.9,1.3-2.1,1.1-3.4
	c-0.2-1.1-1.5-1.7-2.5-1.4c-1,0.2-2.2,0.4-3,1.2c-1,1.1-0.5,2.7,0.8,3.2c1,0.4,2.2-0.1,3.2-0.4c-0.8-0.5-1.7-1-2.5-1.4
	c0.1,0.5-0.2-0.4,0,0c0,0.2,0,0.2,0,0c0-0.1,0-0.2,0.1-0.3c-0.1,0.3,0.1-0.1,0,0c-0.1,0.1-0.1,0.1,0.1-0.1c-0.2,0.1-0.2,0.1,0,0
	c0-0.1,1,0,1.3,0.3c0.2,0.2,0.3,0.4,0.3,0.7c0-0.3-0.1,0.3-0.1,0.4c-0.1,0.2-0.9,0.5-0.6,0.5c0.8-0.1,1.3-1.1,1.2-1.8
	C231,167,230.4,166.3,229.5,166.3L229.5,166.3z"/>
<path style="fill:#F29A24;" d="M96,165.4c-4.8-0.9-9,2.2-11,6.5c-0.5,1-0.4,2.6,0.8,3.2c6.1,2.6,14.1-0.8,15.5-7.6
	c0.4-1.8-0.8-3.3-2.6-3.5c-3.1-0.2-8.6,1.1-8.6,5c0,1.3,1,2.2,2.3,2.3c1.3,0.1,2.1-0.6,3.2-1.1c1-0.6,2-0.7,3.1-0.7
	c-0.9-1.2-1.8-2.3-2.6-3.5c-0.7,4-4.6,6.3-8.5,4.8c0.5,0.9,1.1,1.9,1.6,2.8c1.2-2.9,4.3-4.8,7-6.2C97.2,167.1,97,165.6,96,165.4
	L96,165.4z"/>
<path style="fill:#F29A24;" d="M88.4,170.8c-0.2,0.6-0.1,1.3,0.2,1.9c0.4,0.7,1.1,1.1,1.9,1.1c1.1,0,2-0.8,2.1-1.9
	c0-0.5-0.2-1-0.6-1.3c-0.3-0.2-0.5-0.4-0.9-0.5c0,0-0.1,0-0.1,0c0.2,0.1,0.3,0.1,0.5,0.2c0,0-0.1,0-0.1,0c0.1,0.1,0.3,0.2,0.4,0.3
	c0,0-0.1-0.1-0.1-0.1c0.1,0.1,0.2,0.3,0.3,0.4c0,0-0.1-0.1-0.1-0.1c0.1,0.2,0.1,0.3,0.2,0.5c0,0,0-0.1,0-0.1c0,0.2,0,0.3,0.1,0.5
	c0,0,0-0.1,0-0.1c0,0.2,0,0.3-0.1,0.5c0,0,0-0.1,0-0.1c0.1-0.5,0.1-1-0.2-1.5c-0.2-0.4-0.7-0.8-1.2-0.9c-0.5-0.1-1-0.1-1.5,0.2
	C88.8,169.9,88.5,170.3,88.4,170.8L88.4,170.8z"/>
<path style="fill:#F29A24;" d="M91.6,181.2c-0.1,0.2-0.3,0.5-0.3,0.8c0.1-0.3,0.3-0.5,0.4-0.8c-0.7,0.6-0.6,1.6-0.3,2.3
	c0.2,0.4,0.5,0.7,0.9,0.9c0.9,0.5,2.1,0.4,2.9-0.3c0.6-0.5,0.9-1.3,0.9-2.1c0-1.1-0.7-2.2-1.8-2.5c-0.8-0.1-1.5,0-2,0.7
	c-0.5,0.6-0.6,1.5-0.2,2.1c0,0,0,0.1,0.1,0.1c-0.1-0.2-0.1-0.3-0.2-0.5c0.1,0.3,0.2,0.5,0.3,0.8c-0.1-0.2-0.1-0.3-0.2-0.5
	c0,0.1,0.1,0.2,0.1,0.3c0-0.2,0-0.4-0.1-0.5c0,0.1,0,0.2,0,0.3c0-0.2,0-0.4,0.1-0.5c0,0.1,0,0.2-0.1,0.3c0.1-0.2,0.1-0.3,0.2-0.5
	c0,0,0,0.1-0.1,0.1c0.1-0.1,0.2-0.3,0.3-0.4c0,0-0.1,0.1-0.1,0.1c0.1-0.1,0.3-0.2,0.4-0.3c0,0-0.1,0.1-0.1,0.1
	c0.2-0.1,0.3-0.1,0.5-0.2c0,0-0.1,0-0.1,0c0.2,0,0.3,0,0.5-0.1c-0.1,0-0.1,0-0.2,0c0.2,0,0.3,0,0.5,0.1c-0.1,0-0.1,0-0.1,0
	c0.1,0.1,0.3,0.1,0.4,0.2c-0.2-0.1-0.1-0.2,0.2,0.2c-0.2-0.2,0.3,0.4,0.2,0.2c-0.4-0.6-0.9-0.8-1.6-0.9c0.4,0.2,0.8,0.3,1.2,0.5
	c0.4,0.5,0.2,0.3,0.2,0.2c-0.1-0.2,0.2,0.4,0.1,0.2c-0.2-0.6-0.7-1-1.3-1.1C92.5,180.4,91.9,180.7,91.6,181.2L91.6,181.2z"/>
<path style="fill:#E8EC7A;" d="M235.8,94.7c-2.8-7.5-2.9-15.9-1-23.7c1.4-5.6,3.8-11,7.8-15.1c4-4.1,9.9-6.6,15.6-5.8
	c1.8,8.3,2.7,16.8,2.7,25.3c5.6-5.8,9.1-13.6,9.5-21.6c8.8-0.2,16.7,6.8,19.1,15.2c2.4,8.4-0.1,17.7-5.1,24.9
	C272,111.6,244.9,118.8,235.8,94.7z"/>
<path style="fill:#D9E021;" d="M61.3,154.9c-1.1-0.2-2.3-0.5-3.3-1.1c-2.2-1.3-3-4.2-2.7-6.7c0.3-2.5,1.5-4.9,2.7-7.1
	c1.6-3,3.3-6,5.8-8.3c2.5-2.3,6-3.8,9.3-3c1.6,0.4,3,1.2,4.4,2.1c3.8,2.5,7.3,5.5,10.3,8.9c4.5,4.9,9.4,16,1.8,20.6
	C82.3,164.6,68.5,156.5,61.3,154.9z"/>
<path style="fill:#E8EC7A;" d="M46.4,153.6c-7.8,2-16.1,1.1-23.7-1.6c-5.4-2-10.5-5-14.1-9.5c-3.6-4.5-5.5-10.5-4.1-16.1
	c8.5-0.8,17-0.8,25.5,0.1c-5.1-6.2-12.5-10.5-20.5-11.8c0.7-8.7,8.6-15.9,17.2-17.3c8.6-1.5,17.6,2.1,24.2,7.8
	C67.2,119.6,71.4,147.2,46.4,153.6z"/>
<g>
	<path style="fill:#FFFFFF;" d="M71.5,103c-2.6,20.1,19.3,33.9,37.6,29.8c21.1-4.7,24.7-36,9.4-48.8c-11.5-9.7-27.8-9.3-38.2,1.8
		C74.9,91.5,72.2,97.4,71.5,103z"/>
	<path d="M113.7,113.4c13.8-6.2,11.7-25.8-3.1-28.8c-13.2-2.7-24,13.1-14.8,23.7C100.4,113.7,106.8,116.5,113.7,113.4z"/>
	<path style="fill:#FFFFFF;" d="M114.3,100.4c4.9,0.9,8.5-5.6,4.8-9.2c-2.9-2.9-8-2.6-9,1.5C109.2,96.1,110.4,99.7,114.3,100.4z"/>
</g>
<g>
	<path style="fill:#FFFFFF;" d="M162.2,74.4c-3,23,22.1,38.9,43.1,34.2c24.1-5.4,28.3-41.3,10.8-56c-13.2-11.1-31.9-10.6-43.8,2.1
		C166.2,61.3,163.1,68,162.2,74.4z"/>
	<path d="M210.6,86.4c15.8-7.1,13.4-29.5-3.6-33c-15.2-3.1-27.5,15-16.9,27.2C195.3,86.7,202.7,90,210.6,86.4z"/>
	<path style="fill:#FFFFFF;" d="M211.3,71.5c5.7,1,9.7-6.4,5.5-10.6c-3.3-3.3-9.2-3-10.4,1.7C205.5,66.5,206.9,70.7,211.3,71.5z"/>
</g>
<path style="fill:#D9E021;" d="M186.4,132.8c-0.7,7.1-1.5,14.3-4.3,20.8c-2.8,6.6-7.8,12.5-14.5,14.8c-6,2.1-12.8,1-18.2-2.4
	c-3-1.9-11.2-9.1-10-13.5c1.2-4.6,11.4-2.7,15.5-3.3c6-1,11.9-3,17.3-5.8C175,142,186.1,136.3,186.4,132.8z"/>
<path style="fill:none;" d="M260.4,127.2c0-0.2,0-0.4,0.1-0.6L260.4,127.2z"/>
</svg>
