<?xml version="1.0" encoding="utf-8"?>
<!-- Generator: Adobe Illustrator 22.0.1, SVG Export Plug-In . SVG Version: 6.00 Build 0)  -->
<svg version="1.1" id="Layer_1" xmlns="http://www.w3.org/2000/svg" xmlns:xlink="http://www.w3.org/1999/xlink" x="0px" y="0px"
	 width="300px" height="300px" viewBox="0 0 300 300" style="enable-background:new 0 0 300 300;" xml:space="preserve">
<path style="fill:#E34F25;" d="M188.6,262.8c-12.6-11.4-23.9-29-31.4-36.5c-6.9-6.8-8.4-6.7-14.3,1.3c-3.4,4.7-5.6,10.3-8.4,15.4
	c-5.9,10.9-13.1,21.1-21.3,30.4c-7.1,7.9-16.5,15.7-27.1,14.5c-5-0.5-9.1-2.1-10.8-7.2c-9.1-26.4,3.9-46,10.6-71.3
	c3.6-13.5,7.6-20.1-7.5-26.6c-17.5-7.6-35.8-13.9-51.1-25.2c-3.4-2.5-6.7-5.4-8.5-9.2c-4.2-8.6,0.8-19.5,8.7-24.9
	c8-5.4,18-6.5,27.6-6.8c12.8-0.5,34.8,0.4,42.5-12.7c3-5.1,3.4-11.2,4-17.1c1.8-17.2,5.4-34.1,10.9-50.5c2.1-6.2,4.5-12.4,8.8-17.3
	c4.4-4.8,11.1-8.1,17.4-6.6c10.8,2.5,14.6,15.6,16.4,26.5c1.5,9.2,3.1,18.5,4.6,27.7c1.5,9.3,3.9,19.8,12,24.7c4.3,2.6,9.5,3,14.5,3
	c23.8-0.1,46.8-9.5,70.6-11c5.6-0.4,11.4-0.2,16.6,2.1c5.1,2.3,9.4,7.3,9.3,12.9c0,3.4-1.6,6.6-3.5,9.4c-9.4,14.1-24.9,20.2-36.2,32
	c-6.5,6.8-19.5,14.3-22.8,23.3c-4.6,12.7,2.9,26.9,6.5,38.8c4.8,15.4,6.4,31.8,3.7,47.7c-1.5,9.1-5.3,19.1-13.9,22.6
	C207.1,275.9,197.5,270.9,188.6,262.8z"/>
<g>
	<path style="fill:#FFFFFF;" d="M71.1,147.7c-2.6,20.4,19.6,34.5,38.2,30.3c21.4-4.8,25.1-36.7,9.6-49.6
		c-11.7-9.8-28.3-9.4-38.8,1.9C74.6,136,71.9,142,71.1,147.7z"/>
	<path d="M114,158.3c14-6.3,11.9-26.2-3.2-29.3c-13.4-2.7-24.4,13.3-15,24.1C100.5,158.6,107,161.5,114,158.3z"/>
	<path style="fill:#FFFFFF;" d="M114.6,145.1c5,0.9,8.6-5.7,4.9-9.4c-3-3-8.2-2.7-9.2,1.5C109.5,140.7,110.7,144.4,114.6,145.1z"/>
</g>
<g>
	<path style="fill:#FFFFFF;" d="M150.2,136.2c-3,23.5,22.6,39.7,44,34.9c24.7-5.5,28.9-42.2,11-57.2c-13.5-11.3-32.6-10.8-44.7,2.2
		C154.3,122.8,151.1,129.7,150.2,136.2z"/>
	<path d="M199.6,148.5c16.2-7.2,13.7-30.2-3.7-33.7c-15.5-3.2-28.1,15.3-17.3,27.8C184.1,148.8,191.5,152.1,199.6,148.5z"/>
	<path style="fill:#FFFFFF;" d="M200.3,133.3c5.8,1,9.9-6.5,5.7-10.8c-3.4-3.4-9.4-3.1-10.6,1.7
		C194.4,128.2,195.8,132.5,200.3,133.3z"/>
</g>
<path style="fill:#F29A24;" d="M163.2,172c2.2,8.3-1.5,17.8-8.6,22.5s-17.3,4.3-24-1c-2-1.6-7.3-6.2-7.1-9c0.4-4.8,6.4-3.6,10.1-3.9
	C143.8,179.3,153.9,176.5,163.2,172z"/>
<path style="fill:#F37422;" d="M186.3,197.4c-0.6-0.1-1.2-0.8-2-0.9c-1-0.2-2.1,0-3,0.3c-2.2,0.8-3.8,2.3-5,4.2
	c-0.9,1.5-0.6,3.6,0.6,4.8c3,3,7.6,4.6,11.7,2.9c3.9-1.7,6.3-6.1,5-10.2c-1.3-4.2-6.1-6.4-10.2-5c-5,1.7-7,8.1-3.4,12
	c2.4,2.6,7.1,1.3,7.9-2.1c0.1-0.6,0.7-2.2,0.5-2.5c0.5,0.9-1.2,2.2-1.9,2.3c-0.6,0.1-0.9,0-1.4-0.3c0.7,0.5,0.5,0.2-0.5-0.7
	c-0.3-0.4-0.3-0.9-0.2-1.3c0-0.2,0.1-0.3,0.2-0.4c-0.3,0.5-0.3,0.5-0.2,0.2c-0.1-0.1,0.5-0.2,0.4-0.2c-1.1-0.2-1.9-0.4-3-1
	c0.6,1.5,1.2,3,1.8,4.5c0.5-1.9,2.1-3.1,3.1-4.8c-0.3,0.2-0.6,0.4-0.9,0.7c0.2-0.1,0.3-0.1,0.5-0.2
	C187.4,199.4,187.6,197.7,186.3,197.4L186.3,197.4z"/>
<path style="fill:#F37422;" d="M197,215.9c-1.1-0.7-2.6-0.5-3.7,0.3c-1.3,0.9-1.8,2.1-1.9,3.6c-0.1,1.5,1.1,2.7,2.4,3.1
	c2.1,0.7,4.4,0,6-1.4c1-0.9,1.3-2.9,0.5-4c-0.7-1-1.5-1.7-2.7-2.1c-0.9-0.3-1.9-0.3-2.8,0c-1.6,0.5-2.9,2.3-2.3,4
	c0.3,0.8,0.8,1.6,1.5,2c0.8,0.4,1.6,0.5,2.5,0.3c0,0,0.1,0,0.1,0c-0.3,0-0.6,0.1-0.9,0.1c0.1,0,0.3,0,0.4,0c-0.3,0-0.6-0.1-0.9-0.1
	c0.2,0,0.4,0.1,0.6,0.1c-0.3-0.1-0.5-0.2-0.8-0.3c0.1,0.1,0.5,0.3,0,0c-0.5-0.3-0.1-0.1,0,0c0-1.6,0-3.1,0-4.7
	c-0.3,0.3,0.3-0.2,0.3-0.2c0,0.1-0.3,0.2-0.3,0.2c-0.3,0.2,0.7-0.2,0.3-0.2c-0.1,0-0.3,0.1-0.4,0.1c0.3,0,0.6-0.1,0.9-0.1
	c-0.3,0-0.5,0-0.8,0c0.3,0,0.6,0.1,0.9,0.1c-0.2,0-0.3-0.1-0.5-0.1c0.8,1,1.6,2.1,2.4,3.1c0-0.1,0-0.2,0-0.3c0,0.3-0.1,0.6-0.1,0.9
	c0-0.2,0.1-0.4,0.2-0.6c0.2-0.7-0.2,0.4-0.1,0.1c0.2-0.6,0.4-0.9,0.4-1.6C198.4,217.3,197.9,216.4,197,215.9L197,215.9z"/>
<path style="fill:#F37422;" d="M201.6,237.9c0.8,1.2,2.2,1.9,3.7,1.5c1.6-0.4,2.6-1.9,2.4-3.6c-0.2-1.1-0.8-2-1.9-2.5
	c-0.5-0.2-1.1-0.4-1.7-0.3c-1.2,0.1-2.2,0.5-3.1,1.3c-0.2,0.2-0.3,0.4-0.5,0.6c-0.2,0.3-0.3,0.7-0.4,1.1c-0.1,0.7,0,1.3,0.4,1.9
	c0.2,0.4,0.4,0.6,0.8,0.8c0.3,0.3,0.7,0.4,1,0.5c0.5,0.1,1.1,0.1,1.6,0c0.5-0.1,1-0.4,1.3-0.8c0,0,0.1-0.1,0.1-0.1
	c-0.2,0.2-0.4,0.3-0.6,0.5c0.1-0.1,0.2-0.1,0.3-0.2c-0.2,0.1-0.5,0.2-0.7,0.3c0.1,0,0.2-0.1,0.4-0.1c-0.3,0-0.5,0.1-0.8,0.1
	c0.1,0,0.2,0,0.4,0c-0.3,0-0.5-0.1-0.8-0.1c0.1,0,0.2,0,0.3,0.1c-0.6-0.5-1.2-0.9-1.8-1.4c0,0,0,0.1,0,0.1c-0.1-0.2-0.2-0.5-0.3-0.7
	c0,0,0,0,0,0c0-0.3-0.1-0.5-0.1-0.8c0,0,0,0,0,0c0-0.3,0.1-0.5,0.1-0.8c0,0,0,0,0,0c0.1-0.2,0.2-0.5,0.3-0.7c0,0,0,0,0,0.1
	c0.2-0.2,0.3-0.4,0.5-0.6c0,0,0,0,0,0c0.2-0.2,0.4-0.3,0.6-0.5c0,0-0.1,0-0.1,0.1c0.2-0.1,0.5-0.2,0.7-0.3c-0.3,0.1-0.4,0.1-0.9,0.3
	c-0.4,0.3-0.4,0.3-0.7,0.5c0.2-0.2,0.4-0.3,0.6-0.5c0,0-0.1,0-0.1,0.1c0.2-0.1,0.5-0.2,0.7-0.3c0,0,0,0,0,0
	c-0.9,0.3-1.5,0.8-1.8,1.6C201.1,236.2,201.1,237.2,201.6,237.9L201.6,237.9z"/>
<path style="fill:#F37422;" d="M211.2,248.9c-1.2-0.4-2.8,0-3.6,1c-0.7,0.9-1,1.8-0.8,2.9c0.1,0.8,0.5,1.5,1,2.2
	c1.2,1.3,3.2,1.6,4.6,0.5c1-0.8,1.4-2,1.1-3.2c-0.1-0.5-0.5-1.2-0.9-1.6c-0.9-0.8-2.3-1.2-3.4-0.4c-0.4,0.3-0.8,0.6-1,1
	c-0.4,0.5-0.5,1.6-0.3,2.2c0,0.1,0,0.1,0.1,0.2c0-0.3-0.1-0.5-0.1-0.8c0,0,0,0.1,0,0.1c0-0.3,0.1-0.5,0.1-0.8c0,0.3-0.1,0.6-0.1,0.8
	c0-0.3,0.1-0.5,0.1-0.8c0,0,0,0,0,0.1c0.1-0.2,0.2-0.5,0.3-0.7c0,0,0,0,0,0c0.2-0.2,0.3-0.4,0.5-0.6c0,0,0,0,0,0
	c0.2-0.2,0.4-0.3,0.6-0.5c0,0,0,0,0,0c0.2-0.1,0.5-0.2,0.7-0.3c0,0-0.1,0-0.1,0c0.3,0,0.5-0.1,0.8-0.1c0,0-0.1,0-0.1,0
	c0.3,0,0.5,0.1,0.8,0.1c-0.1,0-0.1,0-0.2-0.1c0.2,0.1,0.5,0.2,0.7,0.3c-0.1,0-0.1-0.1-0.2-0.1c0.2,0.2,0.4,0.3,0.6,0.5
	c-0.1-0.1-0.1-0.1-0.2-0.2c0.2,0.2,0.3,0.4,0.5,0.6c-0.1-0.1-0.1-0.2-0.2-0.3c0.1,0.2,0.2,0.5,0.3,0.7c0-0.1,0-0.1-0.1-0.2
	c0,0.3,0.1,0.5,0.1,0.8c0-0.1,0-0.2,0-0.2c0,0.3-0.1,0.5-0.1,0.8c0.1-0.3,0.1-0.7,0.1-1c0,0.3-0.1,0.5-0.1,0.8c0-0.1,0-0.1,0.1-0.2
	c-0.1,0.2-0.2,0.4-0.3,0.7c0,0,0-0.1,0.1-0.1c-0.1,0.2-0.3,0.4-0.4,0.6c0-0.1,0.1-0.1,0.2-0.2c-0.2,0.1-0.4,0.3-0.5,0.4
	c0.1-0.1,0.2-0.1,0.3-0.2c-0.2,0.1-0.4,0.2-0.6,0.3c0,0,0.1,0,0.1,0c1-0.3,1.9-1.3,1.9-2.4C213,250.2,212.3,249.2,211.2,248.9
	L211.2,248.9z"/>
<path style="fill:#F37422;" d="M112.8,208.1c0.5-3.1-2.2-6-5.4-4.4c-3,1.5-3.7,5.2-2.3,8.1c1.6,3.2,5.4,5.5,8.9,5.9
	c3.5,0.3,6.7-1.5,8.5-4.5c4.3-7.1-2.7-15.2-10.4-13.3c-4.2,1-7.4,5.2-6,9.6c1.6,4.8,8.8,7,12.3,3c1.8-2,2-6.1-1-7.4
	c-0.8-0.4-1.6-0.7-2.5-0.9c-0.4-0.1-0.7-0.1-1.1,0c-2.1,0.1-1.9,1.9,0.9,5.5c-0.3-0.2-0.2,0.4,0.2,0c-0.1,0.1-1.1,0.2-0.4,0.1
	c0.9-0.1-0.5,0.1-0.1-0.2c0.1,0.1,0.2,0.2,0.4,0.4c-0.2-0.3-0.3-0.5-0.5-0.8c0.3,0.3,0.1,0.4,0.1,0.5c-0.1,0.7,0-0.1,0.1-0.1
	c0,0,0.1-0.1,0.1-0.1c-0.5,0.3-0.6,0.3-0.2,0.2c0.4-0.1,0.3-0.1-0.1-0.1c-0.7-0.1-1.5-0.3-2.2-0.7c0.2,0.1-0.7-0.5-0.8-0.5
	c-0.1,0-0.1,1.5-0.7,1.2c0.3,0.2,1.6-1.5,1.7-1.6c-0.5,0.4-1,0.7-1.4,1.1c0.2-0.1,0.4-0.1,0.5-0.2c-0.5-0.1-0.9-0.1-1.4-0.2
	c0,0,0,0,0,0C110.8,209.3,112.5,209.5,112.8,208.1L112.8,208.1z"/>
<path style="fill:#F37422;" d="M101.8,228.5c-0.8,0-1.6,0.3-2.3,0.7c1.1,1.1,2.3,2.3,3.4,3.4c-0.3,0.4-0.4,0.5-0.2,0.3
	c-0.4,0.3-0.5,0.4-0.3,0.3c0.5-0.3-0.6,0.2-0.2,0.1c0.4-0.1-0.9,0-0.2,0c0.5,0-0.8-0.1-0.3,0c0.6,0.2-0.6-0.3-0.2-0.1
	c0.6,0.3-0.5-0.5-0.2-0.2c0.2,0.2,0.1,0.1-0.3-0.4c0.1,0.2,0.1,0.1-0.2-0.4c0.1,0.3,0.1,0.1,0-0.5c0,0.2,0,0.1,0-0.2
	c0.1-0.3,0.1-0.4,0-0.2c0.3-0.5,0.3-0.7,0.2-0.4c0.6-1,1.7-1.3,2.8-1.1c-0.4-0.1-0.8-0.1-1.2-0.1c-0.5,0,1,0.2,0.4,0.1
	c-0.5-0.2-0.1-0.2,0.4,0.2c-0.1,0-0.1-0.1-0.2-0.1c-0.3-0.2-0.1-0.1,0.4,0.4c-0.1-0.1-0.2-0.2-0.3-0.3c-0.2-0.2-0.1-0.1,0.4,0.5
	c-0.2-0.3-0.4-0.5-0.6-0.8c-1-1-2.5-1.2-3.7-0.7c-1.2,0.5-2.1,1.7-2.1,3.1c0,2.7,2.6,4.5,5.1,4.3c0.7,0,1.5-0.2,2.1-0.6
	c0.3-0.2,0.6-0.4,0.8-0.7c0.2-0.2,0.3-0.4,0.5-0.6c0.2-0.2,0.1-0.1-0.3,0.4c0.1,0,0.5-0.7,0.6-0.8c0.2-0.3,0.3-0.6,0.4-0.9
	c0.1-0.4,0.2-0.9,0.2-1.4c-0.1-2.4-2.2-4-4.4-4.1c-2.1-0.1-4.3,1.4-4.1,3.7c0.1,1.3,0.9,2.3,2.2,2.5c1.3,0.2,2.3-0.6,2.7-1.8
	c-0.5,0.7-0.5,0.8-0.3,0.5c-0.2,0.2-0.3,0.2-0.1,0.1C104.8,231.5,104,228.6,101.8,228.5L101.8,228.5z"/>
<path style="fill:#F37422;" d="M92.3,247.6c-2.8,1-4.6,4.1-3.5,7c0.6,1.7,2.2,2.8,4.1,2.3c2.6-0.7,4.9-3.2,3.7-6
	c-1.1-2.7-5.3-3.2-6.8-0.5c-1.1,1.9,0,4,1.9,4.7c0.2,0.1,0.3,0.1,0.5,0.1c0.7,0.1,0.6,0.1-0.2,0c0,0,0.1,0,0.1,0
	c-1.2-0.4-1.9-1.3-2.1-2.8c0.2-0.6,0.3-1.2,0.5-1.7c-0.1,0.1-0.2,0.2-0.3,0.4c0.3-0.4,0.4-0.5,0.2-0.3c-0.2,0.2-0.1,0.1,0.3-0.2
	c-0.1,0.1-0.2,0.2-0.4,0.2c1.5,0.4,3,0.8,4.5,1.2c0,0-0.2-0.3-0.2-0.3c0.1,0,0.2,0.7,0.1,0.2c0,0-0.1-0.4-0.1-0.4
	c0.2,0.1-0.1,0.8,0.1,0.1c0.1-0.4-0.2,0.6,0,0.2c0-0.1,0.1-0.3,0.1-0.4c0-0.3-0.2,0.4-0.1,0.1c0.1-0.1,0.3-0.4,0,0
	c0.7-0.8,1-2,0.4-2.9C94.5,247.9,93.3,247.3,92.3,247.6L92.3,247.6z"/>
<path style="fill:#F37422;" d="M229.6,111.2c-2.1-1.5-5.1-0.9-6.9,0.8c-2.2,2.1-2.8,5.5-1.5,8.2c3,5.9,11.1,5.7,14.5,0.4
	c1.8-2.7,2.2-6.2,0.6-9.1c-1.8-3.1-5.4-4.5-8.8-3.6c-3.6,1-6.1,4.8-5.2,8.5c1,4.3,6.4,7.5,10,3.8c1.6-1.6,1.5-3.6,0.7-5.5
	c-0.3-0.6-0.7-1.1-1.2-1.5c-0.3-0.3-0.7-0.5-1-0.8c0.1,0.1,0.2,0.1,0.3,0.2c1,1.2,1.1,2.4,0.4,3.4c-0.2,0.7-0.7,1.1-1.4,1.2
	c0.7-0.3-0.1,0-0.7-0.2c-0.8-0.2-0.5-0.3-0.9-0.6c0.5,0.3,0.2,0.6,0.1,0.2c-0.1-0.5,0.1-0.1-0.1,0c-0.4,0.2-0.3,0.4-0.7,0.1
	c-0.1-0.1-0.5-0.6-0.6-0.8c-0.2-1,1.1-1.9,2-2.1C230.5,113.6,230.6,112,229.6,111.2L229.6,111.2z"/>
<path style="fill:#F37422;" d="M242.7,108.4c0,0.5,0.1,0.9,0.4,1.3c0,0.1,0.1,0.2,0.2,0.3c0.1,0.1,0.7,1,0.2,0.2
	c-0.1-0.4-0.2-0.7-0.3-1.1c0.1,1.2,0.8,2,1.9,2.4c0.6,0.2,1.4,0.2,2,0c1.8-0.5,2.2-2.6,2.7-4.1c0.4-1.1,0-2.7-0.9-3.5
	c-0.6-0.5-1.1-0.9-1.9-1.1c-0.8-0.2-1.6-0.2-2.3,0c-0.8,0.2-1.8,0.7-2.4,1.3c-0.6,0.7-1.1,1.6-1.1,2.6c0,0.9,0.4,2,1.1,2.6
	c1.4,1.3,3.7,1.4,5.1,0c0,0,0.1-0.1,0.1-0.1c-0.2,0.2-0.5,0.4-0.7,0.6c0.1-0.1,0.2-0.1,0.2-0.1c-0.3,0.1-0.6,0.2-0.9,0.4
	c0.1-0.1,0.3-0.1,0.4-0.1c-0.3,0-0.6,0.1-1,0.1c0.5-0.1,1-0.1,1.5-0.2c-0.3,0-0.6,0.1-1,0.1c0.1,0,0.1,0,0.2,0
	c-1.1-0.9-2.3-1.7-3.4-2.6c0.2,0.7,0.4,1.5,0.7,2.2c0.1-0.7,0.2-1.4,0.3-2.1c0.1-0.1,0.2-0.3,0.3-0.4c-0.1,0.1-0.1,0.1,0.1-0.1
	c0.4-0.3,0.1-0.1,0-0.1c-0.4,0.2-0.7,0.6-1,1c0.4-0.3,0.9-0.7,1.3-1c0.4,0,0.5,0,0.3,0c0.3,0.1,0.4,0.1,0.3,0c-0.1,0-0.1,0,0.2,0.1
	c-0.2-0.1-0.1-0.1,0.1,0.1c-0.5-0.4-1.1-0.6-1.8-0.3C243.2,107.1,242.7,107.7,242.7,108.4L242.7,108.4z"/>
<path style="fill:#F37422;" d="M258.2,98.7c-0.1,0.8-0.2,1.3,0,2.1c0.4,1.2,1.3,2.2,2.6,2.6c0.7,0.2,1.5,0.2,2.1,0
	c1.5-0.4,2.6-1.8,2.5-3.3c-0.3,0.8-0.6,1.5-0.9,2.3c0.2-0.2,0.4-0.5,0.6-0.8c0.1-0.2,0.2-0.5,0.3-0.7c0-0.3,0.1-0.6,0.1-0.8
	c0-0.7-0.3-1.3-0.7-1.9c-0.3-0.4-0.7-0.7-1.3-1c-0.2-0.1-0.5-0.2-0.8-0.2c-0.4-0.1-0.8-0.1-1.2,0.1c0,0,0,0-0.1,0
	c0.3,0,0.6-0.1,0.8-0.1c0,0-0.1,0-0.1,0c0.9,0.5,1.8,1.1,2.8,1.6c-0.4-0.9-1.4-1.4-2.2-1.7c0.3,0.1,0.5,0.2,0.8,0.3
	c-0.1,0-0.1,0-0.2-0.1c0.2,0.2,0.5,0.4,0.7,0.5c-0.6-0.5-0.9-0.7-1.7-1c0.3,0.1,0.6,0.2,0.8,0.4c0,0-0.1,0-0.1-0.1
	c0.2,0.2,0.5,0.4,0.7,0.5c0,0-0.1,0-0.1-0.1c0.2,0.2,0.4,0.5,0.5,0.7c0,0,0-0.1-0.1-0.1c-0.2-0.2-0.4-0.5-0.5-0.7
	c-0.2-0.2-0.5-0.4-0.7-0.5c-0.7-0.4-1.4-0.5-2.2-0.4c-0.6,0.1-1.1,0.3-1.6,0.7C258.8,97.3,258.3,98,258.2,98.7L258.2,98.7z"/>
<path style="fill:#F37422;" d="M135.6,85.5c-2.1-8.6-15.2,0.1-14.2,6.5c1.3,8.7,15.1,7.8,20.2,3.3c2.7-2.3,4-6.2,3-9.7
	c-1.2-4.1-5-5.9-9-6.3c-4.1-0.4-8.6,1.5-9.8,5.8c-1.3,4.6,2,9.2,6.7,9.5c4.7,0.3,6.6-5.8,3.7-8.9c-0.8-0.8,0.4,0.4,0.3,0.9
	c-0.2,0.9-0.5,1.8-0.7,2.8c1.5-3.4-0.9,1-0.9,0.6c0-0.1,1.3,0.1,1.4,0c0.1-0.1-1.3-1.5-1.2-1.5c-0.5-0.2-5.3,2-5.8,0.9
	c0.2,0.7,0.4,1.4,0.6,2.1c-0.2-1.8,2.8-2.7,4.2-3.1C135.2,88,135.9,86.7,135.6,85.5L135.6,85.5z"/>
<path style="fill:#F37422;" d="M133.8,63.4c-0.4-0.3-0.6-0.7-0.9-1c-0.6-0.6-1.2-1.1-2.1-1.2c-1-0.2-2,0.1-2.9,0.6
	c-1.9,1.2-2.5,3.8-1.8,5.9c0.7,2.3,2.6,3.8,4.9,4.1c2.7,0.4,4.9-0.7,7-2.3c0.9-0.7,1.3-2.4,0.9-3.5c-0.7-2.2-2.3-3.8-4.4-4.5
	c-2.2-0.7-5.5-0.4-6.5,2c-0.9,2-0.3,4.6,2.1,5.2c0.6,0.1,1.1,0.2,1.7,0.1c1.5-0.2-0.4,0,0.1,0c0.8-0.1,1.6-0.1,0.6-0.1
	c0.7,0-0.6-0.2-0.2-0.1c0.1,0,0.2,0,0.2,0.1c0.2,0.1,0.2,0-0.1-0.1c-0.3-0.1-0.3-0.1,0,0c0.1,0,0.1,0.1,0.2,0.1c0,0-0.6-0.5-0.2-0.1
	c-0.6-0.6-0.2-0.2-0.1,0.1c0.2-1.5,0.4-2.9,0.6-4.4c-0.1,0.1-0.3,0.3-0.5,0.4c0.3-0.2,0.3-0.2-0.1,0c-0.2,0.1-0.4,0.2-0.6,0.3
	c0.4-0.2,0.3-0.2,0,0c-0.4,0.1-0.4,0.1,0,0c-0.4,0-0.4,0,0,0c0.3,0.2,0.3,0.2,0,0c0.4,0.3,0.4,0.4,0.3,0.2c-0.2-0.2-0.1-0.1,0.2,0.3
	c-0.2-0.3-0.1-0.2,0.1,0.2c0-0.1-0.1-0.3-0.1-0.4c0.1,0.5,0.1,0.6,0.1,0.2c-0.1,1.2-0.1-0.1,0.1-0.1c-0.1,0.3-0.2,0.5-0.4,0.7
	c0.2-0.2,0.2-0.2-0.1,0c-0.5,0.1-0.9,0.2-1.4,0.4c0.9,0,1.7-0.1,2.5-0.5c-0.3,0.1-0.7,0.2-1,0.3c0.4,0,0.7,0,1.1,0
	C134.7,66.4,134.9,64.2,133.8,63.4L133.8,63.4z"/>
<path style="fill:#F37422;" d="M133.9,44.7c0-0.1,0.1-0.3,0.2-0.4c0.4-0.9,0-2.3-0.8-2.9c-1.3-1.2-3.2-1.7-4.9-0.7
	c-1.7,1-2.5,2.9-2.1,4.8c0.9,3.5,4.8,4.9,7.9,3.6c2.9-1.2,4.6-4.5,3.7-7.6c-0.9-3-4.3-5.4-7.5-4.5c-1.7,0.5-2.8,2.2-2.6,4
	c0.3,1.9,1.7,2.9,3.5,3.1c0.1,0,0.5,0,0.5,0c-0.1-0.1-0.8-0.1-0.2,0c-0.2-0.1-0.5-0.3-0.1,0c-0.2-0.1-0.4-0.4-0.1-0.1
	c-0.2-0.2-0.2-0.4-0.1-0.1c-0.1-0.3-0.2-0.5-0.2-0.8c0-0.3,0.2-0.5,0-0.1c0.1-0.1,0.5-0.7,0.3-0.5c-0.4,0.3,0.5-0.3,0.1,0
	c-0.4,0.2,0.6-0.1,0.1,0c-0.5,0.1,0.6,0,0.1,0c-0.4,0,0.3,0.1,0.4,0.1c0.5,0.2,0.4,0.4,0.7,0.9c0.5,0.6,0.4,1.2-0.3,1.8
	c-0.7,0.9-0.9,1.2-0.5,1c0.2-0.1-0.5,0.1-0.6,0.2c-0.7,0.2,0.6-0.1,0.8-0.1c-1-0.4-1.9-0.8-2.9-1.2c0,0,0.1,0.1,0.1,0.1
	C130.7,47.1,133.2,46.9,133.9,44.7L133.9,44.7z"/>
<path style="fill:#F37422;" d="M132.9,31.2c0.1,0,0.2-0.1,0.4-0.1c0.5-0.2,0.8-0.4,1.2-0.8c0.3-0.4,0.5-0.9,0.5-1.4
	c0-0.4-0.1-0.8-0.3-1.1c-0.3-0.5-0.8-0.8-1.3-1c-0.1,0-0.2-0.1-0.4-0.1c-0.7-0.3-1.8,0-2.3,0.6c-0.4,0.5-0.7,1-0.7,1.7
	c0,0.6,0.3,1.3,0.7,1.7C131.1,31.1,132.1,31.5,132.9,31.2L132.9,31.2z"/>
<path style="fill:#F37422;" d="M62,137.4c-4.8-1.5-6.8,5.6-5.5,9c1.9,4.8,8.2,4.4,10.6,0.2c2.2-3.8,2-10-2-12.5
	c-2.2-1.4-5-1.5-7.2-0.1c-1.6,1-2.4,2.7-2.3,4.6c0,2.2,0.9,3.5,2.5,4.7c1.1,0.8,3,0.7,4.2,0c2-1.3,2.6-3,2.6-5.3
	c-0.5,1.1-0.9,2.2-1.4,3.3c-0.9,0.8-1.9,1-3,0.5c-0.1-0.1-0.2-0.2-0.4-0.3c0,0,0.2,0.7,0.3,0.9c0-0.1,0.1,0.7,0.1,0.7
	c0,0.1,0,0.2-0.1,0.3c0-0.2,0.2-0.3,0.5-0.4c0.9-0.2,1.5,0.1,1.7,0.8c0-0.1-0.1-0.3-0.1-0.4c0-0.1,0.1-0.9,0.2-1
	c0.4-1.4,0.9-2.1,0.6-3.6C63.2,138.1,62.6,137.6,62,137.4L62,137.4z"/>
<path style="fill:#F37422;" d="M43.4,136.6c-2.2,0.9-3.2,3.8-2,5.9c0.5,0.8,1.5,1.4,2.4,1.4c1.5-0.1,2.8-0.8,3.5-2.2
	c0.4-0.7,0.6-1.4,0.6-2.2c0-0.4-0.1-0.8-0.1-1.2c-0.1-0.7,0,0.7,0,0.3c-0.1,0.5-0.3,1.1-0.4,1.6c0,0,0,0,0,0c0.5-0.6,0.6-2,0.4-2.7
	c-0.3-0.9-0.8-1.6-1.6-2.1c-0.4-0.2-0.8-0.4-1.2-0.5c-1.6-0.6-3.5,0.5-4.1,2c-0.6,1.5-0.1,3.6,1.4,4.3c0.3,0.2,0.2,0-0.4-0.3
	c0.6,0.5,1.2,0.9,2,1c0.7,0.1,1.6,0,2.2-0.4c0,0,0,0,0,0c-0.8,0.1-1.7,0.2-2.5,0.3c-0.2-0.1-0.4-0.2-0.6-0.3
	c-0.4-0.4-0.7-0.7-1.1-1.1c0.4,0.6-0.2-0.6-0.1-0.2c-0.1-0.6-0.1-0.7-0.1-0.4c0,0.3,0,0.2,0.1-0.4c-0.2,0.7,0.3-0.5,0.1-0.1
	c0.2-0.3,0.4-0.5,0.7-0.7c-0.2,0.1-0.1,0.1,0.3-0.1c0.9,0.2,1.8,0.5,2.7,0.7c-0.2-0.2-0.3-0.3-0.5-0.5c-0.3-0.3,0.3,0.4-0.1-0.1
	c0.1,0.3,0.1,0.3,0,0.1c0-0.2-0.1-0.2,0,0c0-0.2,0-0.2,0-0.1c0-0.2,0.1-0.2,0-0.1C45.8,137.2,44.6,136.1,43.4,136.6L43.4,136.6z"/>
<path style="fill:#F37422;" d="M27.9,137.6c0.1,0.5,0.3,0.9,0.5,1.3c0.2,0.2,0.3,0.5,0.5,0.7c0.5,0.5,1.2,0.7,1.9,0.8
	c0.8,0.1,1.6-0.5,2-1.1c0.4-0.7,0.5-1.5,0.2-2.4c-0.2-0.5-0.3-0.8-0.6-1.2c-0.4-0.5-0.8-1-1.5-1.1c-0.6-0.1-1.1-0.1-1.6,0.1
	C28.2,135.2,27.6,136.4,27.9,137.6L27.9,137.6z"/>
</svg>
